<svg width="35" height="35" viewBox="0 0 35 35" fill="none" xmlns="http://www.w3.org/2000/svg">
<g clip-path="url(#clip0_271_1887)">
<path d="M34.1589 14.2188C33.9558 14.0152 33.7144 13.8537 33.4488 13.7435C33.1831 13.6334 32.8983 13.5766 32.6107 13.5766C32.3231 13.5766 32.0384 13.6334 31.7727 13.7435C31.507 13.8537 31.2657 14.0152 31.0625 14.2188L29.9688 15.3125L26.4491 18.8322V8.20312C26.4459 8.1795 26.4412 8.15611 26.4349 8.13313C26.4321 8.11024 26.4277 8.08759 26.4218 8.06531C26.4004 7.97228 26.3548 7.88659 26.2894 7.81703L18.6332 0.160781C18.564 0.0952017 18.4787 0.0491536 18.386 0.0273438C18.3641 0.0214427 18.3418 0.0170573 18.3193 0.0142188C18.2956 0.00781073 18.2714 0.00305968 18.2471 0L2.93457 0C2.20937 0 1.51387 0.288085 1.00108 0.80088C0.48828 1.31367 0.200195 2.00917 0.200195 2.73438V32.2656C0.200195 32.9908 0.48828 33.6863 1.00108 34.1991C1.51387 34.7119 2.20937 35 2.93457 35H23.7158C24.0749 35 24.4305 34.9293 24.7622 34.7919C25.094 34.6544 25.3954 34.453 25.6493 34.1991C25.9032 33.9452 26.1046 33.6438 26.2421 33.312C26.3795 32.9803 26.4502 32.6247 26.4502 32.2656V25.0206L33.063 18.4078L34.1568 17.3141C34.3603 17.111 34.5218 16.8699 34.6321 16.6044C34.7423 16.3389 34.7992 16.0543 34.7994 15.7669C34.7996 15.4794 34.7432 15.1947 34.6333 14.9291C34.5234 14.6634 34.3622 14.4221 34.1589 14.2188ZM18.7939 1.86703L24.5832 7.65625H20.4346C19.9994 7.65625 19.5821 7.4834 19.2745 7.17572C18.9668 6.86805 18.7939 6.45075 18.7939 6.01562V1.86703ZM18.2657 7.65625H5.12207C4.97703 7.65625 4.83793 7.59863 4.73537 7.49607C4.63281 7.39352 4.5752 7.25442 4.5752 7.10938V4.92188C4.5752 4.77683 4.63281 4.63773 4.73537 4.53518C4.83793 4.43262 4.97703 4.375 5.12207 4.375H17.7002V6.01562C17.7036 6.60972 17.9023 7.18621 18.2657 7.65625ZM25.3608 32.2656C25.3608 32.7007 25.188 33.118 24.8803 33.4257C24.5726 33.7334 24.1553 33.9062 23.7202 33.9062H2.93895C2.50382 33.9062 2.08653 33.7334 1.77885 33.4257C1.47117 33.118 1.29832 32.7007 1.29832 32.2656V2.73438C1.29832 2.30001 1.47057 1.88337 1.7773 1.57582C2.08403 1.26827 2.50021 1.09491 2.93457 1.09375H17.7002V3.28125H5.12207C4.68695 3.28125 4.26965 3.4541 3.96197 3.76178C3.6543 4.06945 3.48145 4.48675 3.48145 4.92188V7.10938C3.48145 7.5445 3.6543 7.9618 3.96197 8.26947C4.26965 8.57715 4.68695 8.75 5.12207 8.75H25.3564V19.927L19.0772 26.2062C19.0526 26.2359 19.0313 26.2682 19.0138 26.3025C19.0029 26.32 18.9843 26.3298 18.9755 26.3484L17.4289 29.4416C17.3849 29.5347 17.3684 29.6385 17.3816 29.7407C17.3948 29.8428 17.437 29.9391 17.5033 30.018L16.823 30.7048C16.767 30.7546 16.7218 30.8153 16.6902 30.8832C16.6587 30.9511 16.6414 31.0248 16.6395 31.0997C16.6375 31.1746 16.651 31.249 16.6791 31.3185C16.7071 31.3879 16.7491 31.4509 16.8025 31.5034C16.8559 31.556 16.9195 31.597 16.9893 31.624C17.0592 31.6509 17.1339 31.6632 17.2087 31.6601C17.2836 31.6571 17.357 31.6386 17.4244 31.606C17.4918 31.5734 17.5518 31.5272 17.6007 31.4705L18.2624 30.8011L18.3039 30.8427C18.385 30.9238 18.4896 30.9775 18.6029 30.9959C18.7162 31.0144 18.8324 30.9967 18.935 30.9455L22.0282 29.3978C22.0468 29.3891 22.0566 29.3705 22.0741 29.3595C22.1084 29.342 22.1407 29.3207 22.1704 29.2961L25.3564 26.1111L25.3608 32.2656ZM19.6186 27.5166L20.8655 28.7634L18.8038 29.7948L18.6561 29.6461V29.6395H18.6496L18.5927 29.5827L19.6186 27.5166ZM25.5249 24.4059L21.793 28.1367L20.2344 26.5934L30.3538 16.4741L31.9004 18.0206L25.5249 24.4059ZM33.3922 16.5386L32.6835 17.2473L31.1358 15.6997L31.8446 14.9909C31.9462 14.8893 32.0668 14.8087 32.1996 14.7537C32.3324 14.6987 32.4747 14.6704 32.6184 14.6704C32.7621 14.6704 32.9044 14.6987 33.0372 14.7537C33.17 14.8087 33.2906 14.8893 33.3922 14.9909C33.4938 15.0926 33.5745 15.2132 33.6295 15.346C33.6844 15.4787 33.7128 15.6211 33.7128 15.7648C33.7128 15.9085 33.6844 16.0508 33.6295 16.1836C33.5745 16.3163 33.4938 16.437 33.3922 16.5386ZM9.49707 17.5H22.6221C22.7671 17.5 22.9062 17.4424 23.0088 17.3398C23.1113 17.2373 23.1689 17.0982 23.1689 16.9531C23.1689 16.8081 23.1113 16.669 23.0088 16.5664C22.9062 16.4639 22.7671 16.4062 22.6221 16.4062H9.49707C9.35203 16.4062 9.21293 16.4639 9.11037 16.5664C9.00781 16.669 8.95019 16.8081 8.95019 16.9531C8.95019 17.0982 9.00781 17.2373 9.11037 17.3398C9.21293 17.4424 9.35203 17.5 9.49707 17.5ZM9.49707 14.2188H22.6221C22.7671 14.2188 22.9062 14.1611 23.0088 14.0586C23.1113 13.956 23.1689 13.8169 23.1689 13.6719C23.1689 13.5268 23.1113 13.3877 23.0088 13.2852C22.9062 13.1826 22.7671 13.125 22.6221 13.125H9.49707C9.35203 13.125 9.21293 13.1826 9.11037 13.2852C9.00781 13.3877 8.95019 13.5268 8.95019 13.6719C8.95019 13.8169 9.00781 13.956 9.11037 14.0586C9.21293 14.1611 9.35203 14.2188 9.49707 14.2188ZM14.9658 30.543C14.5446 30.5537 14.1312 30.4274 13.7879 30.1831C13.2696 29.8467 12.665 29.6677 12.0471 29.6677C11.4293 29.6677 10.8247 29.8467 10.3064 30.1831C9.96308 30.4274 9.54973 30.5537 9.12848 30.543C8.70881 30.5544 8.29672 30.4297 7.95379 30.1875C7.44129 29.8409 6.83443 29.6606 6.21582 29.6712C6.07078 29.6712 5.93168 29.7289 5.82912 29.8314C5.72656 29.934 5.66895 30.0731 5.66895 30.2181C5.66895 30.3632 5.72656 30.5023 5.82912 30.6048C5.93168 30.7074 6.07078 30.765 6.21582 30.765C6.63635 30.7546 7.04891 30.8809 7.3916 31.1248C7.9041 31.4715 8.51096 31.6517 9.12957 31.6411C9.74872 31.6519 10.3562 31.472 10.8697 31.1259C11.2176 30.8914 11.6276 30.7662 12.0471 30.7662C12.4667 30.7662 12.8767 30.8914 13.2246 31.1259C13.7381 31.472 14.3456 31.6519 14.9647 31.6411C15.1098 31.6411 15.2489 31.5835 15.3514 31.4809C15.454 31.3784 15.5116 31.2393 15.5116 31.0942C15.5116 30.9492 15.454 30.8101 15.3514 30.7075C15.2489 30.605 15.1098 30.5473 14.9647 30.5473L14.9658 30.543ZM9.49707 12.0312H22.6221C22.7671 12.0312 22.9062 11.9736 23.0088 11.8711C23.1113 11.7685 23.1689 11.6294 23.1689 11.4844C23.1689 11.3393 23.1113 11.2002 23.0088 11.0977C22.9062 10.9951 22.7671 10.9375 22.6221 10.9375H9.49707C9.35203 10.9375 9.21293 10.9951 9.11037 11.0977C9.00781 11.2002 8.95019 11.3393 8.95019 11.4844C8.95019 11.6294 9.00781 11.7685 9.11037 11.8711C9.21293 11.9736 9.35203 12.0312 9.49707 12.0312ZM9.49707 19.6875H22.6221C22.7671 19.6875 22.9062 19.6299 23.0088 19.5273C23.1113 19.4248 23.1689 19.2857 23.1689 19.1406C23.1689 18.9956 23.1113 18.8565 23.0088 18.7539C22.9062 18.6514 22.7671 18.5938 22.6221 18.5938H9.49707C9.35203 18.5938 9.21293 18.6514 9.11037 18.7539C9.00781 18.8565 8.95019 18.9956 8.95019 19.1406C8.95019 19.2857 9.00781 19.4248 9.11037 19.5273C9.21293 19.6299 9.35203 19.6875 9.49707 19.6875ZM5.12207 19.6875C5.44656 19.6875 5.76375 19.5913 6.03355 19.411C6.30335 19.2307 6.51364 18.9745 6.63781 18.6747C6.76199 18.3749 6.79448 18.0451 6.73117 17.7268C6.66787 17.4086 6.51161 17.1162 6.28217 16.8868C6.05272 16.6573 5.76039 16.5011 5.44214 16.4378C5.12389 16.3745 4.79402 16.407 4.49423 16.5311C4.19445 16.6553 3.93821 16.8656 3.75794 17.1354C3.57767 17.4052 3.48145 17.7224 3.48145 18.0469C3.48145 18.482 3.6543 18.8993 3.96197 19.207C4.26965 19.5146 4.68695 19.6875 5.12207 19.6875ZM5.12207 17.5C5.23023 17.5 5.33596 17.5321 5.4259 17.5922C5.51583 17.6523 5.58593 17.7377 5.62732 17.8376C5.66871 17.9375 5.67954 18.0475 5.65844 18.1536C5.63734 18.2596 5.58525 18.3571 5.50877 18.4336C5.43229 18.5101 5.33484 18.5621 5.22876 18.5832C5.12268 18.6043 5.01272 18.5935 4.91279 18.5521C4.81286 18.5107 4.72745 18.4406 4.66736 18.3507C4.60727 18.2608 4.5752 18.155 4.5752 18.0469C4.5752 17.9018 4.63281 17.7627 4.73537 17.6602C4.83793 17.5576 4.97703 17.5 5.12207 17.5ZM6.7627 23.5156C6.7627 23.1911 6.66647 22.8739 6.4862 22.6041C6.30593 22.3343 6.0497 22.1241 5.74991 21.9999C5.45013 21.8757 5.12025 21.8432 4.802 21.9065C4.48375 21.9698 4.19142 22.1261 3.96197 22.3555C3.73253 22.585 3.57627 22.8773 3.51297 23.1956C3.44967 23.5138 3.48216 23.8437 3.60633 24.1435C3.73051 24.4432 3.94079 24.6995 4.21059 24.8798C4.48039 25.06 4.79759 25.1562 5.12207 25.1562C5.55719 25.1562 5.97449 24.9834 6.28217 24.6757C6.58984 24.368 6.7627 23.9507 6.7627 23.5156ZM5.12207 24.0625C5.01391 24.0625 4.90818 24.0304 4.81824 23.9703C4.72831 23.9102 4.65822 23.8248 4.61682 23.7249C4.57543 23.625 4.5646 23.515 4.5857 23.4089C4.6068 23.3029 4.65889 23.2054 4.73537 23.1289C4.81185 23.0524 4.9093 23.0004 5.01538 22.9793C5.12146 22.9582 5.23142 22.969 5.33135 23.0104C5.43128 23.0518 5.51669 23.1219 5.57678 23.2118C5.63687 23.3017 5.66895 23.4075 5.66895 23.5156C5.66895 23.6607 5.61133 23.7998 5.50877 23.9023C5.40621 24.0049 5.26711 24.0625 5.12207 24.0625ZM9.49707 22.9688H18.2471C18.3921 22.9688 18.5312 22.9111 18.6338 22.8086C18.7363 22.706 18.7939 22.5669 18.7939 22.4219C18.7939 22.2768 18.7363 22.1377 18.6338 22.0352C18.5312 21.9326 18.3921 21.875 18.2471 21.875H9.49707C9.35203 21.875 9.21293 21.9326 9.11037 22.0352C9.00781 22.1377 8.95019 22.2768 8.95019 22.4219C8.95019 22.5669 9.00781 22.706 9.11037 22.8086C9.21293 22.9111 9.35203 22.9688 9.49707 22.9688ZM5.12207 14.2188C5.44656 14.2188 5.76375 14.1225 6.03355 13.9423C6.30335 13.762 6.51364 13.5057 6.63781 13.206C6.76199 12.9062 6.79448 12.5763 6.73117 12.2581C6.66787 11.9398 6.51161 11.6475 6.28217 11.418C6.05272 11.1886 5.76039 11.0323 5.44214 10.969C5.12389 10.9057 4.79402 10.9382 4.49423 11.0624C4.19445 11.1866 3.93821 11.3968 3.75794 11.6666C3.57767 11.9364 3.48145 12.2536 3.48145 12.5781C3.48145 13.0132 3.6543 13.4305 3.96197 13.7382C4.26965 14.0459 4.68695 14.2188 5.12207 14.2188ZM5.12207 12.0312C5.23023 12.0312 5.33596 12.0633 5.4259 12.1234C5.51583 12.1835 5.58593 12.2689 5.62732 12.3688C5.66871 12.4688 5.67954 12.5787 5.65844 12.6848C5.63734 12.7909 5.58525 12.8883 5.50877 12.9648C5.43229 13.0413 5.33484 13.0934 5.22876 13.1145C5.12268 13.1356 5.01272 13.1248 4.91279 13.0834C4.81286 13.042 4.72745 12.9719 4.66736 12.882C4.60727 12.792 4.5752 12.6863 4.5752 12.5781C4.5752 12.4331 4.63281 12.294 4.73537 12.1914C4.83793 12.0889 4.97703 12.0312 5.12207 12.0312ZM9.49707 25.1562H18.2471C18.3921 25.1562 18.5312 25.0986 18.6338 24.9961C18.7363 24.8935 18.7939 24.7544 18.7939 24.6094C18.7939 24.4643 18.7363 24.3252 18.6338 24.2227C18.5312 24.1201 18.3921 24.0625 18.2471 24.0625H9.49707C9.35203 24.0625 9.21293 24.1201 9.11037 24.2227C9.00781 24.3252 8.95019 24.4643 8.95019 24.6094C8.95019 24.7544 9.00781 24.8935 9.11037 24.9961C9.21293 25.0986 9.35203 25.1562 9.49707 25.1562Z" fill="#BBBBBB"/>
</g>
<defs>
<clipPath id="clip0_271_1887">
<rect width="35" height="35" fill="white"/>
</clipPath>
</defs>
</svg>
