<svg width="35" height="35" viewBox="0 0 35 35" fill="none" xmlns="http://www.w3.org/2000/svg">
<path d="M26.8105 34.9998H8.1915C7.99476 34.9998 7.80609 34.9277 7.66697 34.7994C7.52786 34.6711 7.44971 34.4971 7.44971 34.3156V34.304C7.44971 33.3968 7.84047 32.5267 8.53604 31.8852C9.2316 31.2437 10.175 30.8833 11.1587 30.8833H23.8456C24.8292 30.8833 25.7726 31.2437 26.4682 31.8852C27.1637 32.5267 27.5545 33.3968 27.5545 34.304V34.3156C27.5545 34.4057 27.5353 34.4948 27.4978 34.5779C27.4604 34.6611 27.4056 34.7366 27.3365 34.8001C27.2673 34.8637 27.1853 34.914 27.0951 34.9483C27.0048 34.9826 26.9081 35.0001 26.8105 34.9998ZM9.05495 33.6315H25.9456C25.7937 33.2294 25.5099 32.8808 25.1337 32.6341C24.7574 32.3873 24.3072 32.2546 23.8456 32.2543H11.1542C10.6927 32.2547 10.2427 32.3875 9.86654 32.6343C9.49042 32.881 9.2068 33.2295 9.05495 33.6315Z" fill="#FFAE00"/>
<path d="M23.8307 32.2544C23.634 32.2544 23.4453 32.1823 23.3062 32.054C23.1671 31.9257 23.0889 31.7517 23.0889 31.5702C23.0879 31.0235 22.8518 30.4994 22.4324 30.1129C22.013 29.7265 21.4445 29.5093 20.8517 29.5089H14.1481C13.5552 29.5093 12.9867 29.7265 12.5673 30.1129C12.1479 30.4994 11.9118 31.0235 11.9108 31.5702C11.9108 31.7517 11.8327 31.9257 11.6936 32.054C11.5545 32.1823 11.3658 32.2544 11.169 32.2544C10.9723 32.2544 10.7836 32.1823 10.6445 32.054C10.5054 31.9257 10.4272 31.7517 10.4272 31.5702C10.4286 30.6607 10.8211 29.7888 11.5187 29.1458C12.2163 28.5028 13.1619 28.1413 14.1481 28.1406H20.8517C21.8379 28.1413 22.7835 28.5028 23.481 29.1458C24.1786 29.7888 24.5711 30.6607 24.5725 31.5702C24.5725 31.7517 24.4943 31.9257 24.3552 32.054C24.2161 32.1823 24.0274 32.2544 23.8307 32.2544Z" fill="#FFAE00"/>
<path d="M16.0111 29.5092C15.8143 29.5092 15.6257 29.4371 15.4866 29.3088C15.3474 29.1805 15.2693 29.0065 15.2693 28.8251V12.3509H2.23154C2.0348 12.3509 1.84613 12.2788 1.70701 12.1505C1.5679 12.0222 1.48975 11.8482 1.48975 11.6668C1.49112 10.7573 1.88367 9.88545 2.58125 9.2426C3.27883 8.59975 4.22445 8.2384 5.21058 8.23786H15.2693V5.05865C15.2693 4.87721 15.3474 4.70319 15.4866 4.57489C15.6257 4.44659 15.8143 4.37451 16.0111 4.37451C16.2078 4.37451 16.3965 4.44659 16.5356 4.57489C16.6747 4.70319 16.7529 4.87721 16.7529 5.05865V8.92132C16.7529 9.10276 16.6747 9.27678 16.5356 9.40508C16.3965 9.53338 16.2078 9.60546 16.0111 9.60546H5.21058C4.74775 9.60582 4.29639 9.73833 3.91851 9.9848C3.54063 10.2313 3.25476 10.5796 3.10018 10.982H16.0111C16.2078 10.982 16.3965 11.054 16.5356 11.1823C16.6747 11.3106 16.7529 11.4846 16.7529 11.6661V28.8251C16.7529 29.0065 16.6747 29.1805 16.5356 29.3088C16.3965 29.4371 16.2078 29.5092 16.0111 29.5092ZM18.9901 29.5092C18.7934 29.5092 18.6047 29.4371 18.4656 29.3088C18.3265 29.1805 18.2483 29.0065 18.2483 28.8251V11.6661C18.2483 11.4846 18.3265 11.3106 18.4656 11.1823C18.6047 11.054 18.7934 10.982 18.9901 10.982H31.901C31.7463 10.5796 31.4603 10.2312 31.0823 9.98473C30.7043 9.73826 30.2528 9.60577 29.7899 9.60546H18.9901C18.7934 9.60546 18.6047 9.53338 18.4656 9.40508C18.3265 9.27678 18.2483 9.10276 18.2483 8.92132V5.05865C18.2483 4.87721 18.3265 4.70319 18.4656 4.57489C18.6047 4.44659 18.7934 4.37451 18.9901 4.37451C19.1869 4.37451 19.3755 4.44659 19.5146 4.57489C19.6538 4.70319 19.7319 4.87721 19.7319 5.05865V8.23718H29.7899C30.776 8.23772 31.7216 8.59907 32.4192 9.24192C33.1168 9.88477 33.5093 10.7566 33.5107 11.6661C33.5107 11.8475 33.4326 12.0216 33.2934 12.1499C33.1543 12.2782 32.9657 12.3502 32.7689 12.3502H19.7319V28.8244C19.732 28.9143 19.7129 29.0033 19.6757 29.0864C19.6384 29.1695 19.5838 29.245 19.5149 29.3086C19.446 29.3722 19.3642 29.4226 19.2742 29.4571C19.1841 29.4915 19.0876 29.5092 18.9901 29.5092Z" fill="#FFAE00"/>
<path d="M17.5004 6.1737C16.8385 6.17343 16.1915 5.99216 15.6413 5.65281C15.0911 5.31345 14.6623 4.83126 14.4092 4.26719C14.1561 3.70312 14.0901 3.0825 14.2194 2.4838C14.3487 1.8851 14.6676 1.3352 15.1357 0.903635C15.6039 0.472068 16.2002 0.17821 16.8494 0.0592143C17.4986 -0.0597816 18.1715 0.00142818 18.783 0.235105C19.3945 0.468781 19.9172 0.864431 20.2849 1.37203C20.6526 1.87963 20.8488 2.47639 20.8488 3.08685C20.8475 3.90538 20.4942 4.69 19.8665 5.26867C19.2388 5.84733 18.3879 6.17279 17.5004 6.1737ZM17.5004 1.36897C17.1319 1.36924 16.7717 1.47028 16.4655 1.65931C16.1592 1.84835 15.9206 2.11688 15.7798 2.43097C15.639 2.74506 15.6024 3.0906 15.6745 3.4239C15.7466 3.7572 15.9243 4.06329 16.185 4.30347C16.4458 4.54365 16.7779 4.70714 17.1393 4.77326C17.5008 4.83938 17.8754 4.80517 18.2158 4.67495C18.5562 4.54473 18.8471 4.32435 19.0517 4.04168C19.2563 3.759 19.3654 3.42672 19.3652 3.08685C19.3643 2.63116 19.1674 2.19443 18.8178 1.8724C18.4682 1.55037 17.9945 1.36933 17.5004 1.36897ZM12.6587 21.9616H0.741793C0.545057 21.9616 0.356379 21.8896 0.217266 21.7613C0.0781529 21.633 0 21.4589 0 21.2775C0 21.0961 0.0781529 20.922 0.217266 20.7937C0.356379 20.6654 0.545057 20.5934 0.741793 20.5934H12.6587C12.8554 20.5934 13.0441 20.6654 13.1832 20.7937C13.3223 20.922 13.4005 21.0961 13.4005 21.2775C13.4005 21.4589 13.3223 21.633 13.1832 21.7613C13.0441 21.8896 12.8554 21.9616 12.6587 21.9616Z" fill="#FFAE00"/>
<path d="M8.93512 26.0775H4.46582C3.67701 26.0768 2.92072 25.7876 2.36281 25.2733C1.8049 24.759 1.49092 24.0616 1.48975 23.3341V21.2776C1.48998 21.1849 1.51041 21.0933 1.54983 21.008L6.01913 11.3965C6.07632 11.2735 6.17139 11.1686 6.29256 11.0949C6.41374 11.0212 6.55569 10.9819 6.70084 10.9819C6.84599 10.9819 6.98794 11.0212 7.10911 11.0949C7.23029 11.1686 7.32536 11.2735 7.38255 11.3965L11.8511 21.0039C11.8909 21.0891 11.9113 21.1808 11.9112 21.2735V23.3327C11.9104 24.0605 11.5966 24.7582 11.0387 25.2728C10.4807 25.7874 9.72418 26.0768 8.93512 26.0775ZM2.97333 21.4144V23.33C2.97412 23.6947 3.13166 24.0443 3.41143 24.3021C3.6912 24.5598 4.07036 24.7048 4.46582 24.7051H8.93512C9.33057 24.7048 9.70974 24.5598 9.98951 24.3021C10.2693 24.0443 10.4268 23.6947 10.4276 23.33V21.4144L6.70084 13.4017L2.97333 21.4144ZM34.2584 21.9617H22.3415C22.1448 21.9617 21.9561 21.8896 21.817 21.7613C21.6779 21.633 21.5997 21.459 21.5997 21.2776C21.5997 21.0961 21.6779 20.9221 21.817 20.7938C21.9561 20.6655 22.1448 20.5934 22.3415 20.5934H34.2584C34.4552 20.5934 34.6438 20.6655 34.783 20.7938C34.9221 20.9221 35.0002 21.0961 35.0002 21.2776C35.0002 21.459 34.9221 21.633 34.783 21.7613C34.6438 21.8896 34.4552 21.9617 34.2584 21.9617Z" fill="#FFAE00"/>
<path d="M30.5342 26.0775H26.0657C25.2767 26.077 24.5203 25.7879 23.9622 25.2735C23.4041 24.7592 23.09 24.0618 23.0889 23.3341V21.2776C23.0891 21.1849 23.1095 21.0933 23.149 21.008L27.6183 11.3993C27.6755 11.2763 27.7706 11.1714 27.8917 11.0978C28.0129 11.0241 28.1548 10.9849 28.3 10.9849C28.4451 10.9849 28.587 11.0241 28.7082 11.0978C28.8294 11.1714 28.9245 11.2763 28.9817 11.3993L33.4502 21.0039C33.49 21.0891 33.5104 21.1808 33.5103 21.2735V23.3328C33.5095 24.0605 33.1957 24.7582 32.6378 25.2728C32.0798 25.7874 31.3233 26.0768 30.5342 26.0775ZM24.5725 21.4144V23.33C24.5732 23.6949 24.7309 24.0445 25.0108 24.3023C25.2907 24.5601 25.6701 24.705 26.0657 24.7052H30.5342C30.9298 24.705 31.309 24.5601 31.5888 24.3023C31.8687 24.0445 32.0261 23.6948 32.0267 23.33V21.4144L28.3 13.4018L24.5725 21.4144Z" fill="#FFAE00"/>
</svg>
