<svg width="35" height="35" viewBox="0 0 35 35" fill="none" xmlns="http://www.w3.org/2000/svg">
<path d="M1.64062 34.4531H20.2344C20.3794 34.4531 20.5185 34.3955 20.6211 34.2929C20.7236 34.1904 20.7812 34.0513 20.7812 33.9062V32.8125H33.3594C33.5044 32.8125 33.6435 32.7549 33.7461 32.6523C33.8486 32.5498 33.9062 32.4107 33.9062 32.2656V9.29688C33.9062 9.15185 33.8486 9.01277 33.746 8.91023L27.1835 2.34773C27.081 2.24517 26.9419 2.18753 26.7969 2.1875H20.7812V1.09375C20.7812 0.94871 20.7236 0.80961 20.6211 0.707051C20.5185 0.604492 20.3794 0.546875 20.2344 0.546875H1.64062C1.49558 0.546875 1.35648 0.604492 1.25393 0.707051C1.15137 0.80961 1.09375 0.94871 1.09375 1.09375V3.28125C1.09375 3.42629 1.15137 3.56539 1.25393 3.66795C1.35648 3.77051 1.49558 3.82812 1.64062 3.82812H2.1875V6.07469C2.19143 8.14838 2.7368 10.1851 3.76964 11.9833C4.80249 13.7814 6.287 15.2787 8.07625 16.327C8.28145 16.4464 8.45172 16.6176 8.57007 16.8234C8.68842 17.0293 8.7507 17.2626 8.7507 17.5C8.7507 17.7374 8.68842 17.9707 8.57007 18.1766C8.45172 18.3824 8.28145 18.5536 8.07625 18.673C6.28707 19.7214 4.80262 21.2187 3.76979 23.0168C2.73695 24.815 2.19153 26.8516 2.1875 28.9253V31.1719H1.64062C1.49558 31.1719 1.35648 31.2295 1.25393 31.3321C1.15137 31.4346 1.09375 31.5737 1.09375 31.7188V33.9062C1.09375 34.0513 1.15137 34.1904 1.25393 34.2929C1.35648 34.3955 1.49558 34.4531 1.64062 34.4531ZM27.3438 4.05453L32.0392 8.75H27.3438V4.05453ZM20.7812 3.28125H26.25V9.29688C26.25 9.44192 26.3076 9.58102 26.4102 9.68357C26.5127 9.78613 26.6518 9.84375 26.7969 9.84375H32.8125V31.7188H20.7812C20.7812 31.5737 20.7236 31.4346 20.6211 31.3321C20.5185 31.2295 20.3794 31.1719 20.2344 31.1719H19.6875V28.9253C19.6815 26.1634 18.7148 23.4897 16.9531 21.3626V13.6374C18.7148 11.5103 19.6815 8.83657 19.6875 6.07469V3.82812H20.2344C20.3794 3.82812 20.5185 3.77051 20.6211 3.66795C20.7236 3.56539 20.7812 3.42629 20.7812 3.28125ZM15.8594 20.2048C15.2305 19.6207 14.5395 19.1072 13.7987 18.6736C13.5937 18.554 13.4236 18.3828 13.3053 18.177C13.1871 17.9711 13.1248 17.7379 13.1248 17.5005C13.1248 17.2632 13.1871 17.0299 13.3053 16.8241C13.4236 16.6183 13.5937 16.4471 13.7987 16.3275C14.5394 15.8934 15.2304 15.3795 15.8594 14.7952V20.2048ZM2.1875 1.64062H19.6875V2.73438H2.1875V1.64062ZM3.28125 28.9253C3.2849 27.0428 3.78002 25.1939 4.7176 23.5615C5.65519 21.9291 7.00275 20.5698 8.62695 19.618C8.99739 19.4023 9.30476 19.0932 9.5184 18.7215C9.73203 18.3499 9.84446 17.9287 9.84446 17.5C9.84446 17.0713 9.73203 16.6501 9.5184 16.2785C9.30476 15.9068 8.99739 15.5977 8.62695 15.382C7.00275 14.4302 5.65519 13.0709 4.7176 11.4385C3.78002 9.80611 3.2849 7.95719 3.28125 6.07469V3.82812H18.5938V6.07469C18.5902 7.95726 18.095 9.80626 17.1573 11.4387C16.2196 13.0711 14.8719 14.4304 13.2475 15.382C12.8772 15.5978 12.57 15.907 12.3564 16.2786C12.1429 16.6503 12.0305 17.0714 12.0305 17.5C12.0305 17.9286 12.1429 18.3497 12.3564 18.7214C12.57 19.093 12.8772 19.4022 13.2475 19.618C14.8719 20.5696 16.2196 21.9289 17.1573 23.5613C18.095 25.1937 18.5902 27.0427 18.5938 28.9253V31.1719H17.1965L13.1693 26.6968C12.8877 26.384 12.5435 26.1339 12.159 25.9627C11.7746 25.7915 11.3584 25.703 10.9375 25.703C10.5166 25.703 10.1004 25.7915 9.71597 25.9627C9.33149 26.1339 8.98729 26.384 8.7057 26.6968L4.67852 31.1719H3.28125V28.9253ZM15.7254 31.1719H6.14961L9.51836 27.4285C9.69748 27.2297 9.91637 27.0708 10.1608 26.962C10.4053 26.8532 10.6699 26.797 10.9375 26.797C11.2051 26.797 11.4697 26.8532 11.7142 26.962C11.9586 27.0708 12.1775 27.2297 12.3566 27.4285L15.7254 31.1719ZM2.1875 32.2656H19.6875V33.3594H2.1875V32.2656Z" fill="#BBBBBB"/>
<path d="M11.4844 23.5156H10.3906V24.6094H11.4844V23.5156Z" fill="#BBBBBB"/>
<path d="M11.4844 21.3281H10.3906V22.4219H11.4844V21.3281Z" fill="#BBBBBB"/>
<path d="M10.6931 15.8009C10.7691 15.8388 10.8527 15.8585 10.9376 15.8585C11.0225 15.8585 11.1061 15.8388 11.1821 15.8009L11.3778 15.703C14.19 14.3014 16.3656 11.8852 17.4656 8.94195C17.4967 8.85919 17.5072 8.77014 17.4962 8.68243C17.4853 8.59472 17.4533 8.51096 17.4029 8.43833C17.3526 8.3657 17.2853 8.30637 17.207 8.2654C17.1287 8.22444 17.0416 8.20307 16.9532 8.20313H4.92197C4.83359 8.20307 4.7465 8.22444 4.66818 8.2654C4.58986 8.30637 4.52263 8.3657 4.47226 8.43833C4.42189 8.51096 4.38987 8.59472 4.37895 8.68243C4.36803 8.77014 4.37853 8.85919 4.40955 8.94195C5.51021 11.8856 7.68692 14.302 10.5001 15.703L10.6931 15.8009ZM5.74229 9.29688H16.1329C15.0658 11.6362 13.2333 13.542 10.9376 14.7C8.64176 13.5422 6.80921 11.6363 5.74229 9.29688Z" fill="#BBBBBB"/>
<path d="M11.4844 19.1406H10.3906V20.2344H11.4844V19.1406Z" fill="#BBBBBB"/>
<path d="M26.7969 10.9375H20.2344V12.0312H26.7969V10.9375Z" fill="#BBBBBB"/>
<path d="M31.7188 13.125H18.0469V14.2188H31.7188V13.125Z" fill="#BBBBBB"/>
<path d="M31.7188 15.3125H18.0469V16.4062H31.7188V15.3125Z" fill="#BBBBBB"/>
<path d="M31.7188 17.5H18.0469V18.5938H31.7188V17.5Z" fill="#BBBBBB"/>
<path d="M31.7188 19.6875H23.5156V20.7812H31.7188V19.6875Z" fill="#BBBBBB"/>
<path d="M31.7188 27.3438H25.1562V28.4375H31.7188V27.3438Z" fill="#BBBBBB"/>
<path d="M31.7188 29.5312H22.4219V30.625H31.7188V29.5312Z" fill="#BBBBBB"/>
</svg>
