<svg width="35" height="35" viewBox="0 0 35 35" fill="#FF0000" xmlns="http://www.w3.org/2000/svg">
<path d="M25.6991 9.02846V32.0371C25.6991 32.9254 24.9722 33.6523 24.0839 33.6523H3.04587C2.15753 33.6523 1.43066 32.9254 1.43066 32.0371V2.96335C1.43066 2.07501 2.15753 1.34814 3.04587 1.34814H18.0107L25.6991 9.02846Z" fill="white"/>
<path opacity="0.04" d="M25.6991 9.02812V32.0367C25.6991 32.9251 24.9722 33.6519 24.0839 33.6519H3.04587C2.15753 33.6519 1.43066 32.9251 1.43066 32.0367V31.1645C14.0535 30.7203 23.2358 20.2538 23.2358 7.52599V6.56494L25.6991 9.02812Z" fill="black"/>
<path d="M25.7007 9.03167H19.7159C18.7756 9.03167 18.0133 8.26937 18.0133 7.32904V1.34424L25.7007 9.03167ZM22.6274 23.267V24.7445C22.6274 24.9002 22.4963 25.0313 22.3405 25.0313H14.072C13.9163 25.0313 13.7852 24.9002 13.7852 24.7445V23.267C13.7852 23.1113 13.9163 22.9884 14.072 22.9884H22.3405C22.4963 22.9884 22.6274 23.1113 22.6274 23.267Z" fill="#E0F2D2"/>
<path opacity="0.04" d="M22.63 23.2675V24.7454C22.63 24.8989 22.4927 25.0281 22.3393 25.0281H14.0698C13.9164 25.0281 13.7871 24.8989 13.7871 24.7454V24.2528H20.0861C20.8856 24.2528 21.564 23.7117 21.7739 22.9849H22.3392C22.4927 22.9849 22.63 23.1141 22.63 23.2675Z" fill="black"/>
<path d="M22.6272 17.9325V19.4099C22.6272 19.5656 22.4961 19.6967 22.3404 19.6967H4.79224C4.63653 19.6967 4.50537 19.5656 4.50537 19.4099V17.9325C4.50537 17.7768 4.63653 17.6538 4.79224 17.6538H22.3404C22.4961 17.6538 22.6272 17.7768 22.6272 17.9325Z" fill="#E0F2D2"/>
<path opacity="0.04" d="M22.6298 17.9355V19.4134C22.6298 19.5668 22.4925 19.696 22.3391 19.696H4.79002C4.63657 19.696 4.50732 19.5668 4.50732 19.4134V18.9127H20.0859C20.8854 18.9127 21.5557 18.3797 21.7738 17.6528H22.3391C22.4925 17.6528 22.6298 17.774 22.6298 17.9355Z" fill="black"/>
<path d="M22.6272 12.598V14.0754C22.6272 14.2311 22.4961 14.3622 22.3404 14.3622H4.79224C4.63653 14.3622 4.50537 14.2311 4.50537 14.0754V12.598C4.50537 12.4423 4.63653 12.3193 4.79224 12.3193H22.3404C22.4961 12.3193 22.6272 12.4423 22.6272 12.598Z" fill="#E0F2D2"/>
<path opacity="0.04" d="M22.6298 12.5954V14.0733C22.6298 14.2348 22.4925 14.3641 22.3391 14.3641H4.79002C4.63657 14.3641 4.50732 14.2348 4.50732 14.0733V13.5807H20.0859C20.8854 13.5807 21.5557 13.0477 21.7738 12.3208H22.3391C22.4925 12.3208 22.6298 12.442 22.6298 12.5954Z" fill="black"/>
<path d="M22.627 28.5975V30.0749C22.627 30.2306 22.4959 30.3618 22.3402 30.3618H13.9304C13.7747 30.3618 13.6436 30.2306 13.6436 30.0749V28.5975C13.6436 28.4418 13.7747 28.3188 13.9304 28.3188H22.3401C22.4959 28.3188 22.627 28.4417 22.627 28.5975Z" fill="#E0F2D2"/>
<path opacity="0.04" d="M22.6301 28.5949V30.0728C22.6301 30.2344 22.4928 30.3636 22.3393 30.3636H13.9287C13.7752 30.3636 13.646 30.2344 13.646 30.0728V29.5802H20.0861C20.8857 29.5802 21.556 29.0472 21.774 28.3203H22.3393C22.4928 28.3203 22.6301 28.4415 22.6301 28.5949Z" fill="black"/>
<path d="M14.1619 7.27559V8.75301C14.1619 8.90873 14.0308 9.03169 13.8751 9.03169H4.78404C4.62833 9.03169 4.50537 8.90874 4.50537 8.75301V7.27559C4.50537 7.11988 4.62832 6.98877 4.78404 6.98877H13.8751C14.0308 6.98877 14.1619 7.11988 14.1619 7.27559Z" fill="#FFAE00"/>
<path opacity="0.04" d="M14.1586 7.27564V8.75351C14.1586 8.90696 14.0294 9.02812 13.8759 9.02812H4.78242C4.62897 9.02812 4.50781 8.90696 4.50781 8.75351V8.25281H11.6308C12.4303 8.25281 13.1087 7.71981 13.3106 6.98486H13.8759C14.0294 6.98487 14.1586 7.1222 14.1586 7.27564Z" fill="black"/>
<path d="M11.7508 27.0209C11.2526 27.4136 10.9622 28.0174 10.9622 28.6444C10.9622 28.7137 10.9655 28.7863 10.9721 28.8556C11.0084 29.1822 10.7477 29.4429 10.421 29.4066C10.3517 29.4 10.2791 29.3967 10.2098 29.3967C9.58286 29.3967 8.97902 29.6871 8.58634 30.1854C8.40156 30.423 8.03198 30.423 7.8472 30.1854C7.45783 29.6871 6.85396 29.3967 6.227 29.3967C6.15772 29.3967 6.08511 29.4 6.01581 29.4066C5.68914 29.4429 5.42846 29.1822 5.46475 28.8556C5.47136 28.7863 5.47466 28.7137 5.47466 28.6444C5.47466 28.0174 5.18428 27.4136 4.68601 27.0209C4.44841 26.8361 4.44841 26.4665 4.68601 26.2818C5.18427 25.8891 5.47466 25.2852 5.47466 24.6583C5.47466 24.589 5.47136 24.5197 5.46475 24.4504C5.42846 24.1237 5.68914 23.863 6.01581 23.8993C6.08511 23.9059 6.15441 23.9092 6.22369 23.9092C6.85066 23.9092 7.45452 23.6188 7.8472 23.1206C8.03198 22.883 8.40156 22.883 8.58634 23.1206C8.97902 23.6188 9.58286 23.9092 10.2098 23.9092C10.2824 23.9092 10.355 23.9059 10.4276 23.896C10.751 23.863 11.0084 24.1204 10.9754 24.4438C10.8995 25.1433 11.1931 25.8429 11.7475 26.2784C11.9851 26.4665 11.9884 26.8328 11.7508 27.0209Z" fill="#FFAE00"/>
<path opacity="0.04" d="M11.7509 27.0209C11.2534 27.4144 10.9638 28.0196 10.9638 28.6433C10.9638 28.7138 10.9638 28.7881 10.9713 28.8549C11.0084 29.1816 10.7485 29.4415 10.4218 29.4081C10.3512 29.4007 10.2807 29.3969 10.2102 29.3969C9.58275 29.3969 8.97759 29.6865 8.58775 30.184C8.40212 30.4216 8.03086 30.4216 7.84523 30.184C7.46655 29.6977 6.87624 29.4081 6.26367 29.4007C6.87995 28.7064 7.76728 28.3054 8.69172 28.3054C8.79937 28.3054 8.91446 28.3091 9.02214 28.3203C9.53448 28.376 9.94287 27.9676 9.88717 27.4552C9.87604 27.3476 9.86861 27.2325 9.86861 27.1248C9.86861 26.2041 10.2696 25.3131 10.9676 24.6968C10.975 25.3056 11.2608 25.8959 11.7472 26.2784C11.9848 26.4677 11.9885 26.8315 11.7509 27.0209Z" fill="black"/>
<path d="M8.21656 30.8685C7.91289 30.8685 7.63287 30.7325 7.4485 30.4955C7.01797 29.9444 6.51439 29.9151 5.95545 29.9151C5.66919 29.9151 5.39773 29.7948 5.20974 29.5852C5.02076 29.3742 4.93071 29.0882 4.96259 28.8003C5.01434 28.2469 4.77388 27.733 4.37332 27.4174C4.13899 27.2353 4.00293 26.9556 4.00293 26.6519C4.0026 26.3483 4.13866 26.0683 4.37562 25.8836C4.77074 25.5727 5.01397 25.0637 4.96193 24.4983C4.93071 24.2183 5.02076 23.9324 5.20973 23.7217C5.39739 23.5117 5.66919 23.3914 5.95511 23.3914C6.39039 23.3914 6.96762 23.421 7.4508 22.8084C7.81495 22.3397 8.61521 22.3368 8.98461 22.8107C9.51403 23.4835 10.1606 23.3884 10.4829 23.3884C10.7675 23.3884 11.0384 23.5077 11.2263 23.7158C11.415 23.9248 11.5067 24.2088 11.4774 24.495C11.4199 25.0248 11.6431 25.5549 12.0591 25.8816C12.2968 26.0699 12.4322 26.3506 12.4318 26.6533C12.4318 26.9536 12.2977 27.232 12.0637 27.417C11.6663 27.7303 11.4221 28.2386 11.4745 28.8082C11.5057 29.0882 11.4156 29.3742 11.2267 29.5848C11.039 29.7948 10.7672 29.9151 10.4813 29.9151C10.0435 29.9151 9.4663 29.8837 8.98297 30.4978C8.79992 30.7328 8.52023 30.8685 8.21656 30.8685ZM8.21689 29.8395C8.75785 29.178 9.61826 28.8197 10.4708 28.9048C10.3798 28.0794 10.7272 27.1851 11.438 26.6247C10.7475 26.1353 10.3791 25.2594 10.4734 24.3895C9.96582 24.5261 8.85184 24.274 8.1896 23.4331C7.7124 24.1144 6.83589 24.4858 5.96792 24.402C6.04717 25.3457 5.64376 26.17 4.99807 26.6786C5.64537 27.1317 6.05635 27.9772 5.96693 28.9035C6.87905 28.8254 7.69758 29.1995 8.21689 29.8395Z" fill="#FFAE00"/>
<path d="M22.7642 15.7999C20.446 18.32 18.597 21.1442 17.2172 24.2726C14.9291 23.8361 13.1222 22.6647 11.7964 20.7583C14.1145 18.2383 15.9635 15.414 17.3433 12.2856C19.6314 12.7221 21.4384 13.8936 22.7642 15.7999Z" fill="#E2E2E2"/>
<path opacity="0.07" d="M22.7649 15.8004C20.4468 18.3205 18.5978 21.1447 17.2179 24.2731C16.7218 24.1819 16.2453 24.0507 15.793 23.8826C16.4208 22.6304 17.137 21.4355 17.9245 20.2934C19.4495 18.0953 18.7154 15.1438 16.565 13.9209C16.8407 13.3885 17.1009 12.8396 17.3441 12.2861C19.6322 12.7226 21.4392 13.894 22.7649 15.8004Z" fill="black"/>
<path d="M11.7437 19.9539L17.9774 23.9952C18.2376 24.1638 18.3058 24.5044 18.1393 24.7586L17.4948 25.7431C17.3283 25.9973 16.9878 26.0729 16.7276 25.9042L10.4939 21.863C10.2385 21.6973 10.1656 21.3538 10.332 21.0996L10.9766 20.115C11.143 19.8608 11.4883 19.7883 11.7437 19.9539ZM17.8324 10.6539L24.0661 14.6951C24.3262 14.8638 24.3944 15.2043 24.228 15.4585L23.5864 16.4384C23.417 16.6973 23.0794 16.7682 22.8193 16.5995L16.5856 12.5583C16.3301 12.3926 16.2542 12.0537 16.4237 11.7949L17.0652 10.815C17.2317 10.5607 17.5769 10.4883 17.8324 10.6539Z" fill="#C7C7C7"/>
<g opacity="0.05">
<path d="M11.7425 19.953L17.9762 23.9942C18.2363 24.1629 18.3045 24.5034 18.1381 24.7576L17.4935 25.7421C17.3271 25.9964 16.9865 26.0719 16.7264 25.9032L16.2572 25.5991C16.4711 24.8884 16.2012 24.0879 15.5462 23.6633L10.7061 20.5255L10.9754 20.1141C11.1418 19.8598 11.487 19.7873 11.7425 19.953ZM17.8312 10.6529L24.0649 14.6941C24.325 14.8628 24.3932 15.2033 24.2268 15.4575L23.5852 16.4374C23.4158 16.6963 23.0782 16.7672 22.8181 16.5985L22.349 16.2944C22.5628 15.5837 22.2899 14.7878 21.6349 14.3632L16.7948 11.2254L17.0641 10.814C17.2305 10.5598 17.5757 10.4873 17.8312 10.6529Z" fill="black"/>
</g>
<path d="M32.197 28.0213C31.7733 28.6667 31.0846 29.0313 30.3759 29.0748C29.8001 29.1101 29.2178 28.9372 28.7361 28.5434L21.9561 22.9552L23.4068 20.7427L31.2769 24.6523C32.535 25.2766 32.9627 26.8494 32.197 28.0213Z" fill="#FFAE00"/>
<path d="M31.4945 24.219L25.4713 21.2268V8.76861C25.501 8.50947 25.4015 8.3211 25.2337 8.19082C19.9387 2.92321 18.3801 1.37265 17.9848 0.979337C17.9777 0.97232 17.9696 0.96419 17.9633 0.957883L17.9015 0.896388C17.9058 0.900724 17.91 0.904944 17.9147 0.909565L17.8655 0.860659C17.7664 0.762013 17.5951 0.68108 17.4186 0.677726C17.4135 0.677609 17.4089 0.674805 17.4038 0.674805C11.1646 0.674805 13.5768 0.674805 2.96525 0.674805C1.74793 0.674805 0.757324 1.66055 0.757324 2.8719V30.7857C0.757324 31.9971 1.74793 32.9825 2.96525 32.9825H23.2634C24.4807 32.9825 25.4713 31.9971 25.4713 30.7857V26.482L28.427 28.918C29.7515 30.0008 31.6918 29.677 32.6053 28.2857C33.5284 26.8726 33.0126 24.972 31.4945 24.219ZM18.0558 2.88263C18.0541 2.88093 18.0543 2.88113 18.0558 2.88263C18.0657 2.89253 18.0727 2.89939 18.0806 2.90728C18.089 2.9156 18.1 2.92653 18.1136 2.9401C18.1194 2.94578 18.1243 2.95075 18.1279 2.95429C18.3891 3.21398 19.47 4.28855 23.2555 8.0521H19.0489C18.5013 8.0521 18.0558 7.60876 18.0558 7.06351L18.0558 2.88263ZM24.1725 30.7857C24.1725 31.2843 23.7647 31.6901 23.2634 31.6901H2.96526C2.46393 31.6901 2.05615 31.2843 2.05615 30.7857V2.8719C2.05615 2.37303 2.46393 1.96725 2.96526 1.96725H16.7569V7.06352C16.7569 8.32126 17.785 9.34455 19.0489 9.34455H24.1725V14.1859L18.0983 10.2479C17.6328 9.9466 16.9599 10.0883 16.6571 10.5509L16.0156 11.5306C15.8627 11.7641 15.8107 12.0421 15.8691 12.3135C15.9271 12.5829 16.0876 12.8142 16.32 12.9644L16.4364 13.0399C15.2896 15.4138 13.8563 17.6276 12.1382 19.6314L12.0097 19.5481C11.5446 19.2468 10.8711 19.3885 10.5685 19.8504L9.92357 20.8355C9.6106 21.3145 9.74727 21.9576 10.2283 22.2693L16.4617 26.3101C16.9405 26.6215 17.5854 26.4927 17.9029 26.0078L18.5476 25.0233C18.8614 24.5445 18.7292 23.9045 18.2432 23.5892L18.1164 23.507C18.6189 22.4674 19.1914 21.4677 19.8057 20.4949L22.0387 21.9425L21.5483 22.6906C21.4128 22.8969 21.4547 23.1714 21.6453 23.3286L24.1725 25.4115L24.1725 30.7857ZM17.3019 22.979L12.9486 20.1568C14.6588 18.147 16.1051 15.9428 17.2622 13.5753L21.6107 16.3945C19.9012 18.4043 18.4584 20.6106 17.3019 22.979ZM17.7314 24.4942L17.0867 25.4787C17.0683 25.5071 17.0414 25.5099 17.0306 25.5099L10.7597 21.4571C10.7296 21.4376 10.7207 21.394 10.7401 21.3644L11.3847 20.3799C11.3965 20.3619 11.4136 20.3546 11.4364 20.3546C11.4485 20.3546 11.4624 20.3565 11.478 20.3603L17.7114 24.4014C17.738 24.4185 17.7488 24.4674 17.7314 24.4942ZM16.8511 12.1519C16.8248 12.1349 16.8147 12.0859 16.8318 12.0598L17.4733 11.0797C17.485 11.0617 17.5024 11.0545 17.5249 11.0545C17.5373 11.0545 17.5513 11.0567 17.5668 11.0601L23.8005 15.1016C23.8272 15.1189 23.837 15.1678 23.8199 15.1943L23.1784 16.1738C23.161 16.2009 23.1394 16.2066 23.1245 16.2066L16.8511 12.1519ZM22.4345 16.9285L22.5537 17.0058C22.7253 17.1169 22.9225 17.1759 23.1245 17.1759C23.4755 17.1759 23.8009 16.9992 23.9946 16.7029L24.1725 16.4312V20.5815L23.6242 20.3092C23.4026 20.1978 23.134 20.2716 22.9989 20.478L22.5709 21.1309L20.3308 19.6786C20.9772 18.724 21.6802 17.8074 22.4345 16.9285ZM31.7891 27.7565C31.193 28.664 29.9195 28.8842 29.0469 28.1702L22.6013 22.8578L23.5776 21.3694L31.0598 25.0865C32.0556 25.5806 32.3958 26.8282 31.7891 27.7565Z" fill="#FFAE00"/>
</svg>

