<svg width="118" height="34" viewBox="0 0 118 34" fill="none" xmlns="http://www.w3.org/2000/svg">
<path d="M0 28.6474H6.905V27.7834H0V28.6474ZM0 23.1184H6.905V22.2584H0V23.1184ZM0 17.3874H6.905V16.5234H0V17.3874ZM0 11.7324H6.905V10.8674H0V11.7324ZM0 6.2214H6.905V5.3584H0V6.2214Z" fill="white"/>
<path d="M117.5 0.599121H0V33.4021H117.5V0.599121Z" fill="#D9000D"/>
<path d="M97.3564 15.7823C98.3834 15.8409 99.4007 15.5567 100.248 14.9743C100.847 14.5774 101.287 13.9822 101.491 13.2933C101.595 12.891 101.66 12.4798 101.685 12.0653C101.702 11.7515 101.643 11.4383 101.514 11.1518C101.385 10.8653 101.189 10.6138 100.943 10.4183C100.252 9.9757 99.4349 9.77099 98.6164 9.83528H95.2884L94.0274 15.7823H97.3564ZM84.8174 28.6433L89.7564 5.31128H100.486C102.573 5.18723 104.656 5.61054 106.529 6.53928C107.222 6.97054 107.782 7.5851 108.147 8.31492C108.512 9.04473 108.668 9.86133 108.597 10.6743C108.525 11.8833 108.346 13.0835 108.063 14.2613C107.835 15.1732 107.418 16.027 106.839 16.7677C106.26 17.5083 105.532 18.1194 104.702 18.5613C102.45 19.8166 99.8933 20.4208 97.3174 20.3063H93.0564L91.2804 28.6443L84.8174 28.6433ZM77.2864 12.1943C77.3499 11.915 77.3834 11.6297 77.3864 11.3433C77.38 10.827 77.171 10.3339 76.8044 9.97028C76.1722 9.47716 75.3705 9.25426 74.5744 9.35028C73.8322 9.34682 73.1061 9.56668 72.4904 9.98128C71.8551 10.4013 71.4994 10.778 71.4234 11.1113C71.3601 11.3601 71.3222 11.6148 71.3104 11.8713C71.296 12.2059 71.3884 12.5365 71.5743 12.8152C71.7601 13.0938 72.0299 13.3061 72.3444 13.4213C73.1936 13.7777 74.0684 14.0695 74.9614 14.2943C76.0181 14.5743 77.2138 14.8866 78.5484 15.2313C81.3078 16.1593 82.6868 17.7859 82.6854 20.1113C82.6156 21.1406 82.459 22.1623 82.2174 23.1653C81.9048 24.6633 80.6381 26.03 78.4174 27.2653C76.0572 28.5395 73.4071 29.1803 70.7254 29.1253C68.5048 29.2279 66.294 28.7717 64.2954 27.7983C63.5029 27.3467 62.8564 26.6775 62.4325 25.8699C62.0085 25.0623 61.8249 24.15 61.9034 23.2413C61.9113 22.5587 61.9762 21.878 62.0974 21.2063H68.5564C68.4948 21.4937 68.4613 21.7864 68.4564 22.0803C68.4362 22.4402 68.5052 22.7995 68.6573 23.1262C68.8095 23.453 69.04 23.7371 69.3284 23.9533C70.0466 24.4232 70.8967 24.6497 71.7534 24.5993C72.6059 24.5911 73.4435 24.3748 74.1934 23.9693C74.9994 23.5493 75.4518 23.0966 75.5504 22.6113C75.6184 22.3188 75.6671 22.0221 75.6964 21.7233C75.6964 20.69 74.4964 19.877 72.0964 19.2843C70.36 18.9074 68.6619 18.3718 67.0234 17.6843C66.1594 17.3108 65.4277 16.6861 64.9234 15.8913C64.4929 15.1274 64.2757 14.2619 64.2944 13.3853C64.2906 13.1535 64.3016 12.9217 64.3274 12.6913C64.3474 12.5293 64.3924 12.2553 64.4554 11.8673C64.7072 10.7132 65.2097 9.62858 65.9274 8.69036C66.6451 7.75215 67.5604 6.98329 68.6084 6.43828C70.8945 5.31926 73.4158 4.76541 75.9604 4.82328C77.9676 4.75087 79.961 5.18015 81.7604 6.07228C82.4931 6.44394 83.1018 7.02082 83.5121 7.73253C83.9225 8.44424 84.1168 9.26 84.0714 10.0803C84.0651 10.7958 83.9564 11.5067 83.7484 12.1913L77.2864 12.1943ZM39.7994 28.6433L44.7444 5.31128H62.5194L61.5824 9.83428H50.2704L49.2374 14.6493H59.6374L58.6674 19.1743H48.2664L47.2324 24.1193H58.5444L57.5754 28.6443L39.7994 28.6433ZM28.9724 28.6433L33.9184 5.31128H40.3824L35.4364 28.6433H28.9724ZM15.8214 28.6433H9.35645L14.3024 5.31128H30.8164L29.8794 9.83428H19.8284L18.6664 15.2643H28.0044L27.0354 19.7883H17.6954L15.8214 28.6433Z" fill="white"/>
<path d="M111.185 5.37793H117.498V6.23993H111.185V5.37793ZM111.185 10.8879H117.498V11.7529H111.185V10.8879ZM111.185 16.5439H117.498V17.4079H111.185V16.5439ZM111.185 22.2749H117.498V23.1399H111.185V22.2749ZM111.185 27.8039H117.498V28.6679H111.185V27.8039Z" fill="white"/>
<path d="M0 5.3584H6.905V6.2224H0V5.3584ZM0 10.8684H6.905V11.7334H0V10.8684ZM0 16.5244H6.905V17.3884H0V16.5244ZM0 22.2584H6.905V23.1224H0V22.2584ZM0 27.7874H6.905V28.6514H0V27.7874Z" fill="white"/>
</svg>
