<svg width="143" height="51" viewBox="0 0 143 51" fill="none" xmlns="http://www.w3.org/2000/svg">
<path d="M1.998 42.9619H0V50.1339H1.998V42.9619Z" fill="#1A1818"/>
<path d="M3.19531 44.5907H5.14131V45.3697C5.32603 45.0981 5.57313 44.8746 5.86194 44.718C6.15075 44.5614 6.47285 44.4763 6.80131 44.4697C7.06555 44.4575 7.32927 44.5031 7.57401 44.6035C7.81876 44.7038 8.03861 44.8565 8.21817 45.0507C8.39774 45.2449 8.53268 45.4761 8.61354 45.7279C8.69441 45.9798 8.71924 46.2463 8.68631 46.5087V50.1357H6.73931V47.1357C6.73931 46.5357 6.42231 46.2037 5.96031 46.2037C5.8426 46.2028 5.72607 46.2272 5.61863 46.2753C5.51119 46.3233 5.41536 46.394 5.33766 46.4824C5.25996 46.5708 5.2022 46.675 5.16832 46.7877C5.13444 46.9004 5.12523 47.0191 5.14131 47.1357V50.1357H3.19531V44.5907Z" fill="#1A1818"/>
<path d="M9.48296 47.3863V47.3653C9.48296 45.5653 10.609 44.4653 11.921 44.4653C12.2468 44.459 12.5696 44.5279 12.8645 44.6666C13.1593 44.8054 13.4182 45.0103 13.621 45.2653V42.6523H15.568V50.1313H13.622V49.3933C13.4303 49.6622 13.1766 49.8808 12.8823 50.0307C12.5881 50.1806 12.2621 50.2573 11.932 50.2543C11.5797 50.2357 11.235 50.1455 10.9187 49.9893C10.6024 49.8332 10.3212 49.6143 10.0922 49.346C9.86315 49.0777 9.69114 48.7656 9.58658 48.4287C9.48202 48.0918 9.4461 47.7372 9.48296 47.3863ZM13.654 47.3653V47.3453C13.6703 47.1869 13.6532 47.0268 13.6037 46.8754C13.5543 46.7239 13.4736 46.5846 13.3669 46.4663C13.2602 46.3481 13.1299 46.2535 12.9843 46.1888C12.8388 46.1241 12.6812 46.0906 12.522 46.0906C12.3627 46.0906 12.2052 46.1241 12.0596 46.1888C11.9141 46.2535 11.7837 46.3481 11.677 46.4663C11.5703 46.5846 11.4896 46.7239 11.4402 46.8754C11.3907 47.0268 11.3736 47.1869 11.39 47.3453V47.3653C11.3722 47.5246 11.3883 47.6858 11.4371 47.8384C11.4859 47.991 11.5663 48.1315 11.6732 48.2509C11.78 48.3703 11.9108 48.4658 12.0571 48.5312C12.2033 48.5966 12.3617 48.6304 12.522 48.6304C12.6822 48.6304 12.8406 48.5966 12.9868 48.5312C13.1331 48.4658 13.2639 48.3703 13.3708 48.2509C13.4776 48.1315 13.558 47.991 13.6068 47.8384C13.6556 47.6858 13.6717 47.5246 13.654 47.3653Z" fill="#1A1818"/>
<path d="M16.5688 48.2165V44.5945H18.5148V47.5945C18.5148 48.1945 18.8328 48.5265 19.3048 48.5265C19.4218 48.5264 19.5374 48.5011 19.6437 48.4525C19.7501 48.4039 19.8449 48.3331 19.9215 48.2447C19.9982 48.1564 20.055 48.0526 20.0882 47.9405C20.1214 47.8283 20.1301 47.7103 20.1138 47.5945V44.5945H22.0598V50.1375H20.1138V49.3795C19.928 49.6487 19.6802 49.8692 19.3913 50.0226C19.1024 50.1759 18.7809 50.2575 18.4538 50.2605C18.1896 50.2728 17.9259 50.2271 17.6811 50.1268C17.4364 50.0264 17.2165 49.8738 17.0369 49.6795C16.8574 49.4853 16.7224 49.2542 16.6416 49.0023C16.5607 48.7505 16.5359 48.484 16.5688 48.2215M19.6328 42.2285L21.4328 42.8115L19.9168 44.1115H18.5668L19.6328 42.2285Z" fill="#1A1818"/>
<path d="M22.6797 49.4357L23.4077 48.2567C23.9699 48.6449 24.631 48.8652 25.3137 48.8917C25.6517 48.8917 25.8057 48.7917 25.8057 48.5917V48.5717C25.8057 48.3567 25.4987 48.2637 24.9147 48.1007C23.8147 47.8127 22.9467 47.4447 22.9467 46.3277V46.3077C22.9467 45.1287 23.8897 44.4727 25.1707 44.4727C25.9777 44.4709 26.7691 44.6947 27.4557 45.1187L26.7897 46.3477C26.2903 46.0526 25.7293 45.8773 25.1507 45.8357C24.8507 45.8357 24.7007 45.9487 24.7007 46.1027V46.1237C24.7007 46.3387 25.0177 46.4407 25.6007 46.6147C26.7007 46.9227 27.5677 47.3017 27.5677 48.3767V48.3977C27.5677 49.6167 26.6557 50.2527 25.3037 50.2527C24.3651 50.2618 23.4474 49.9752 22.6807 49.4337" fill="#1A1818"/>
<path d="M28.613 48.4105V46.1565H27.957V44.5885H28.613V43.1885H30.559V44.5885H31.85V46.1565H30.559V48.0315C30.559 48.4205 30.733 48.5845 31.092 48.5845C31.3488 48.5794 31.6012 48.5161 31.83 48.3995V49.9265C31.4131 50.1449 30.9476 50.254 30.477 50.2435C30.2258 50.2837 29.9686 50.2642 29.7262 50.1868C29.4838 50.1093 29.263 49.9759 29.0816 49.7975C28.9002 49.619 28.7633 49.4004 28.6819 49.1593C28.6005 48.9182 28.5769 48.6624 28.613 48.4105Z" fill="#1A1818"/>
<path d="M32.6885 44.5896H34.6345V45.7066C34.7453 45.3358 34.9793 45.0138 35.2978 44.794C35.6164 44.5741 36.0004 44.4696 36.3865 44.4976V46.5476H36.2225C35.2075 46.5476 34.6345 47.1316 34.6345 48.4116V50.1326H32.6885V44.5896Z" fill="#1A1818"/>
<path d="M37.0713 42.6533H39.1023V44.0883H37.0713V42.6533ZM37.1123 44.5893H39.0583V50.1323H37.1123V44.5893Z" fill="#1A1818"/>
<path d="M39.8657 48.5425V48.5215C39.8657 47.3745 40.7357 46.7805 42.0377 46.7805C42.4903 46.7807 42.94 46.8533 43.3697 46.9955V46.9035C43.3697 46.3295 43.0107 46.0035 42.2627 46.0035C41.7382 46.0027 41.2189 46.1075 40.7357 46.3115L40.3357 44.9385C41.0459 44.6415 41.81 44.4951 42.5797 44.5085C42.9587 44.4744 43.3407 44.5167 43.7031 44.6328C44.0655 44.7489 44.401 44.9365 44.6897 45.1845C44.9052 45.4212 45.0693 45.6999 45.1717 46.0032C45.2741 46.3064 45.3126 46.6276 45.2847 46.9465V50.1325H43.3587V49.5595C43.1552 49.7884 42.9039 49.9697 42.6226 50.0907C42.3412 50.2116 42.0367 50.2693 41.7307 50.2595C41.4925 50.2855 41.2515 50.2603 41.0238 50.1856C40.7961 50.111 40.587 49.9886 40.4105 49.8266C40.2339 49.6646 40.094 49.4668 40 49.2464C39.9061 49.026 39.8603 48.788 39.8657 48.5485M43.3897 48.1285V47.8715C43.1484 47.7759 42.8911 47.7274 42.6317 47.7285C42.0687 47.7285 41.7407 48.0055 41.7407 48.4155V48.4355C41.7416 48.5215 41.7606 48.6064 41.7966 48.6846C41.8325 48.7627 41.8846 48.8324 41.9494 48.889C42.0141 48.9457 42.0901 48.988 42.1724 49.0132C42.2546 49.0385 42.3413 49.0461 42.4267 49.0355C42.5514 49.0457 42.6768 49.0294 42.7948 48.9879C42.9129 48.9463 43.0208 48.8804 43.1116 48.7944C43.2025 48.7083 43.2742 48.6041 43.3221 48.4885C43.37 48.373 43.393 48.2486 43.3897 48.1235" fill="#1A1818"/>
<path d="M48.8809 42.9609H54.6179V44.7029H50.8679V45.9219H54.2599V47.5709H50.8689V50.1319H48.8809V42.9609Z" fill="#1A1818"/>
<path d="M55.0879 47.3873V47.3663C55.1321 46.5854 55.4728 45.8508 56.0404 45.3126C56.6081 44.7744 57.3598 44.4733 58.142 44.4707C58.9242 44.4682 59.6778 44.7644 60.249 45.2988C60.8201 45.8333 61.1656 46.5657 61.2149 47.3463V47.3663C61.1708 48.1473 60.8302 48.882 60.2627 49.4202C59.6951 49.9585 58.9435 50.2598 58.1613 50.2625C57.3791 50.2651 56.6254 49.969 56.0541 49.4347C55.4829 48.9003 55.1373 48.168 55.0879 47.3873ZM59.3189 47.3873V47.3663C59.3256 47.2063 59.3002 47.0466 59.2442 46.8966C59.1882 46.7466 59.1028 46.6093 58.9929 46.4928C58.883 46.3763 58.751 46.283 58.6045 46.2183C58.458 46.1537 58.3 46.119 58.1399 46.1163C57.9818 46.1166 57.8254 46.1492 57.6803 46.212C57.5352 46.2749 57.4045 46.3667 57.2962 46.4819C57.1878 46.597 57.1042 46.7331 57.0503 46.8818C56.9964 47.0304 56.9735 47.1885 56.9829 47.3463V47.3663C56.9762 47.5262 57.0016 47.6859 57.0575 47.8358C57.1134 47.9858 57.1988 48.123 57.3085 48.2395C57.4183 48.356 57.5503 48.4493 57.6966 48.514C57.843 48.5788 58.0009 48.6135 58.1609 48.6163C58.319 48.6162 58.4754 48.5838 58.6205 48.521C58.7657 48.4583 58.8965 48.3666 59.0049 48.2515C59.1133 48.1364 59.1971 48.0004 59.2511 47.8518C59.3051 47.7032 59.3282 47.5452 59.3189 47.3873Z" fill="#1A1818"/>
<path d="M62.0352 44.5896H63.9812V45.7066C64.0919 45.3358 64.3259 45.0138 64.6445 44.794C64.9631 44.5741 65.3471 44.4696 65.7332 44.4976V46.5476H65.5652C64.5502 46.5476 63.9772 47.1316 63.9772 48.4116V50.1326H62.0352V44.5896Z" fill="#1A1818"/>
<path d="M66.7517 48.4105V46.1565H66.0957V44.5885H66.7517V43.1885H68.6977V44.5885H69.9887V46.1565H68.6977V48.0315C68.6977 48.4205 68.8717 48.5845 69.2307 48.5845C69.4875 48.5794 69.7398 48.5161 69.9687 48.3995V49.9265C69.5518 50.1449 69.0863 50.254 68.6157 50.2435C68.3644 50.2837 68.1072 50.2642 67.8648 50.1868C67.6225 50.1093 67.4017 49.9759 67.2203 49.7975C67.0389 49.619 66.902 49.4004 66.8206 49.1593C66.7392 48.9182 66.7156 48.6624 66.7517 48.4105Z" fill="#1A1818"/>
<path d="M70.4586 47.3873V47.3663C70.4424 46.9895 70.5029 46.6134 70.6365 46.2608C70.7702 45.9082 70.9742 45.5865 71.2361 45.3152C71.498 45.0439 71.8124 44.8288 72.1601 44.6828C72.5078 44.5369 72.8816 44.4632 73.2586 44.4663C73.65 44.4536 74.0395 44.5253 74.4007 44.6766C74.7619 44.8278 75.0864 45.055 75.352 45.3427C75.6176 45.6304 75.8182 45.9719 75.9401 46.344C76.062 46.7162 76.1025 47.1102 76.0586 47.4993C76.0586 47.6223 76.0586 47.7653 76.0486 47.8993H72.3396C72.3954 48.1708 72.5477 48.4128 72.7684 48.5806C72.9891 48.7483 73.2631 48.8302 73.5397 48.8113C73.7726 48.8083 74.0023 48.7567 74.2141 48.6597C74.4259 48.5628 74.6152 48.4226 74.7696 48.2483L75.8447 49.1403C75.5622 49.5062 75.1964 49.7993 74.7777 49.9952C74.359 50.1911 73.8996 50.284 73.4376 50.2663C73.0487 50.2919 72.6586 50.2358 72.2927 50.1014C71.9268 49.9671 71.5931 49.7575 71.3131 49.4862C71.0332 49.2149 70.8132 48.888 70.6674 48.5265C70.5216 48.1649 70.4532 47.7769 70.4666 47.3873M74.2366 46.9063C74.1646 46.2913 73.8066 45.9063 73.2736 45.9063C72.7616 45.9063 72.4126 46.3063 72.3106 46.9063H74.2366Z" fill="#1A1818"/>
<path d="M90.6201 42.9609H93.6931C95.5071 42.9609 96.6751 43.8929 96.6751 45.4819V45.5029C96.6751 47.1929 95.3751 48.0839 93.5911 48.0839H92.6071V50.1329H90.6191L90.6201 42.9609ZM93.5501 46.5269C94.2571 46.5269 94.6871 46.1579 94.6871 45.5949V45.5739C94.6871 44.9589 94.2571 44.6309 93.5391 44.6309H92.6071V46.5309L93.5501 46.5269Z" fill="#1A1818"/>
<path d="M97.1207 48.5425V48.5215C97.1207 47.3745 97.9907 46.7805 99.2927 46.7805C99.7453 46.7807 100.195 46.8533 100.625 46.9955V46.9035C100.625 46.3295 100.266 46.0035 99.5177 46.0035C98.9932 46.0027 98.4739 46.1075 97.9907 46.3115L97.5907 44.9385C98.3009 44.6415 99.065 44.4951 99.8347 44.5085C100.214 44.4744 100.596 44.5167 100.958 44.6328C101.321 44.7489 101.656 44.9365 101.945 45.1845C102.16 45.4213 102.324 45.7 102.426 46.0033C102.528 46.3066 102.567 46.6277 102.539 46.9465V50.1325H100.621V49.5595C100.417 49.7884 100.166 49.9697 99.8846 50.0907C99.6033 50.2116 99.2988 50.2693 98.9927 50.2595C98.7535 50.2866 98.5112 50.2621 98.2822 50.1876C98.0533 50.1131 97.843 49.9903 97.6655 49.8275C97.4881 49.6648 97.3476 49.4658 97.2536 49.2441C97.1596 49.0225 97.1143 48.7832 97.1207 48.5425ZM100.645 48.1225V47.8655C100.403 47.7699 100.146 47.7214 99.8867 47.7225C99.3237 47.7225 98.9957 47.9995 98.9957 48.4095V48.4295C98.9966 48.5155 99.0157 48.6004 99.0516 48.6786C99.0876 48.7567 99.1397 48.8264 99.2044 48.883C99.2692 48.9397 99.3452 48.982 99.4274 49.0072C99.5097 49.0325 99.5963 49.0401 99.6817 49.0295C99.8064 49.0396 99.9319 49.0234 100.05 48.9819C100.168 48.9403 100.276 48.8744 100.367 48.7884C100.458 48.7023 100.529 48.5981 100.577 48.4825C100.625 48.367 100.648 48.2426 100.645 48.1175" fill="#1A1818"/>
<path d="M103.574 44.5945H105.52V50.1375H103.574V44.5945ZM104.874 42.2285L106.674 42.8115L105.158 44.1115H103.806L104.874 42.2285Z" fill="#1A1818"/>
<path d="M106.196 49.4357L106.924 48.2567C107.486 48.6449 108.148 48.8652 108.83 48.8917C109.168 48.8917 109.322 48.7917 109.322 48.5917V48.5717C109.322 48.3567 109.015 48.2637 108.431 48.1007C107.331 47.8127 106.463 47.4447 106.463 46.3277V46.3077C106.463 45.1287 107.406 44.4727 108.687 44.4727C109.494 44.4709 110.286 44.6947 110.972 45.1187L110.306 46.3477C109.807 46.0526 109.246 45.8774 108.667 45.8357C108.367 45.8357 108.217 45.9487 108.217 46.1027V46.1237C108.217 46.3387 108.534 46.4407 109.117 46.6147C110.217 46.9227 111.084 47.3017 111.084 48.3767V48.3977C111.084 49.6167 110.172 50.2527 108.82 50.2527C107.882 50.2618 106.964 49.9752 106.197 49.4337" fill="#1A1818"/>
<path d="M114.826 42.9609H120.564V44.7029H116.814V45.9219H120.206V47.5709H116.816V50.1319H114.826V42.9609Z" fill="#1A1818"/>
<path d="M121.035 47.3873V47.3663C121.079 46.5854 121.42 45.8508 121.988 45.3126C122.555 44.7744 123.307 44.4733 124.089 44.4707C124.871 44.4682 125.625 44.7644 126.196 45.2988C126.767 45.8333 127.113 46.5657 127.162 47.3463V47.3663C127.118 48.1473 126.777 48.882 126.21 49.4202C125.642 49.9585 124.891 50.2598 124.109 50.2625C123.326 50.2651 122.573 49.969 122.001 49.4347C121.43 48.9003 121.085 48.168 121.035 47.3873ZM125.266 47.3873V47.3663C125.273 47.2063 125.247 47.0466 125.191 46.8966C125.135 46.7466 125.05 46.6093 124.94 46.4928C124.83 46.3763 124.698 46.283 124.552 46.2183C124.405 46.1537 124.247 46.119 124.087 46.1163C123.929 46.1166 123.773 46.1492 123.628 46.212C123.482 46.2749 123.352 46.3667 123.243 46.4819C123.135 46.597 123.051 46.7331 122.998 46.8818C122.944 47.0304 122.921 47.1885 122.93 47.3463V47.3663C122.923 47.5262 122.949 47.6859 123.005 47.8358C123.061 47.9858 123.146 48.123 123.256 48.2395C123.366 48.356 123.498 48.4493 123.644 48.514C123.79 48.5788 123.948 48.6135 124.108 48.6163C124.266 48.6162 124.423 48.5838 124.568 48.521C124.713 48.4583 124.844 48.3666 124.952 48.2515C125.061 48.1364 125.144 48.0004 125.198 47.8518C125.252 47.7032 125.275 47.5452 125.266 47.3873Z" fill="#1A1818"/>
<path d="M127.978 44.5897H129.926V45.7067C130.036 45.3357 130.271 45.0136 130.589 44.7937C130.908 44.5739 131.292 44.4694 131.679 44.4977V46.5477H131.515C130.501 46.5477 129.927 47.1317 129.927 48.4117V50.1327H127.981L127.978 44.5897Z" fill="#1A1818"/>
<path d="M132.701 48.4105V46.1565H132.045V44.5885H132.701V43.1885H134.647V44.5885H135.939V46.1565H134.647V48.0315C134.647 48.4205 134.821 48.5845 135.18 48.5845C135.437 48.5794 135.689 48.5161 135.918 48.3995V49.9265C135.501 50.1449 135.035 50.254 134.565 50.2435C134.314 50.2836 134.057 50.2642 133.814 50.1868C133.572 50.1094 133.351 49.9761 133.17 49.7978C132.989 49.6194 132.852 49.401 132.77 49.16C132.689 48.919 132.665 48.6623 132.701 48.4105Z" fill="#1A1818"/>
<path d="M136.406 47.3873V47.3663C136.39 46.9895 136.45 46.6134 136.584 46.2608C136.717 45.9082 136.921 45.5865 137.183 45.3152C137.445 45.0439 137.76 44.8288 138.107 44.6828C138.455 44.5369 138.829 44.4632 139.206 44.4663C139.597 44.4536 139.987 44.5253 140.348 44.6766C140.709 44.8278 141.034 45.055 141.299 45.3427C141.565 45.6304 141.765 45.9719 141.887 46.344C142.009 46.7162 142.05 47.1102 142.006 47.4993C142.006 47.6223 142.006 47.7653 141.996 47.8993H138.287C138.343 48.1708 138.495 48.4128 138.716 48.5806C138.936 48.7483 139.21 48.8302 139.487 48.8113C139.72 48.8083 139.95 48.7567 140.161 48.6597C140.373 48.5628 140.562 48.4226 140.717 48.2483L141.792 49.1403C141.509 49.5062 141.144 49.7993 140.725 49.9952C140.306 50.1911 139.847 50.284 139.385 50.2663C138.996 50.2919 138.606 50.2358 138.24 50.1014C137.874 49.9671 137.54 49.7575 137.26 49.4862C136.98 49.2149 136.76 48.888 136.615 48.5265C136.469 48.1649 136.401 47.7769 136.414 47.3873M140.184 46.9063C140.112 46.2913 139.754 45.9063 139.221 45.9063C138.709 45.9063 138.36 46.3063 138.258 46.9063H140.184Z" fill="#1A1818"/>
<path d="M84.9837 43.6309H82.7637L85.1697 46.8549L82.7637 50.0799H84.9837L87.3887 46.8549L84.9837 43.6309Z" fill="#DB0617"/>
<path d="M81.4134 43.6309H79.1934L81.5994 46.8549L79.1934 50.0799H81.4134L83.8184 46.8549L81.4134 43.6309Z" fill="#DB0617"/>
<path d="M0 33.896H8.345V32.851H0V33.896ZM0 27.214H8.345V26.17H0V27.214ZM0 20.288H8.345V19.244H0V20.288ZM0 13.451H8.345V12.409H0V13.451ZM0 6.79098H8.345V5.75098H0V6.79098Z" fill="white"/>
<path d="M142 0H0V39.642H142V0Z" fill="#D9000D"/>
<path d="M117.656 18.349C118.898 18.4212 120.13 18.0778 121.156 17.373C121.878 16.8926 122.409 16.1733 122.656 15.341C122.781 14.8548 122.859 14.358 122.891 13.857C122.91 13.4774 122.839 13.0986 122.682 12.7523C122.526 12.4059 122.289 12.102 121.991 11.866C121.154 11.3328 120.167 11.087 119.179 11.166H115.157L113.633 18.354L117.656 18.349ZM102.503 33.892L108.478 5.69199H121.445C124.645 5.69199 127.078 6.18665 128.745 7.17599C129.582 7.69729 130.259 8.44041 130.701 9.32295C131.142 10.2055 131.33 11.193 131.245 12.176C131.157 13.6371 130.941 15.0876 130.6 16.511C130.324 17.6136 129.82 18.646 129.121 19.5418C128.421 20.4375 127.542 21.1765 126.539 21.711C123.817 23.2279 120.727 23.9581 117.615 23.82H112.46L110.315 33.892H102.503ZM93.4026 14.013C93.4784 13.6751 93.5179 13.3302 93.5206 12.984C93.5137 12.3606 93.2623 11.7649 92.8206 11.325C92.0566 10.7288 91.0878 10.4592 90.1256 10.575C89.2289 10.5707 88.3515 10.8362 87.6076 11.337C86.8396 11.8443 86.4096 12.2997 86.3176 12.703C86.2412 13.0039 86.1956 13.3118 86.1816 13.622C86.1642 14.0264 86.2759 14.426 86.5006 14.7627C86.7254 15.0994 87.0514 15.3559 87.4316 15.495C88.4579 15.9257 89.5152 16.2784 90.5946 16.55C91.8713 16.8887 93.3163 17.2663 94.9296 17.683C98.263 18.8043 99.9296 20.771 99.9296 23.583C99.8453 24.8267 99.6563 26.061 99.3646 27.273C98.9866 29.0837 97.457 30.737 94.7756 32.233C91.9221 33.7737 88.7178 34.5482 85.4756 34.481C82.7922 34.6062 80.1203 34.0561 77.7046 32.881C75.7733 31.8097 74.8076 29.9727 74.8076 27.37C74.8173 26.5452 74.8959 25.7227 75.0426 24.911H82.8526C82.7794 25.2584 82.7402 25.612 82.7356 25.967C82.7111 26.402 82.7945 26.8363 82.9784 27.2313C83.1622 27.6263 83.4409 27.9697 83.7896 28.231C84.6575 28.7991 85.6851 29.0729 86.7206 29.012C87.751 29.0019 88.7633 28.7403 89.6696 28.25C90.6443 27.742 91.1909 27.195 91.3096 26.609C91.3915 26.2555 91.4503 25.8971 91.4856 25.536C91.4856 24.2873 90.034 23.305 87.1306 22.589C85.0347 22.1322 82.9851 21.4842 81.0076 20.653C79.9626 20.202 79.0776 19.4469 78.4676 18.486C77.9471 17.5631 77.6843 16.5173 77.7066 15.458C77.7017 15.1778 77.7147 14.8975 77.7456 14.619C77.7706 14.419 77.8236 14.092 77.8996 13.619C78.2041 12.2252 78.8112 10.9154 79.678 9.78232C80.5448 8.64922 81.6501 7.72053 82.9156 7.06199C85.6783 5.70934 88.7254 5.03991 91.8006 5.10999C94.2254 5.02294 96.6336 5.54156 98.8076 6.61899C99.6942 7.06713 100.431 7.76376 100.928 8.62379C101.426 9.48382 101.662 10.47 101.608 11.462C101.6 12.3266 101.468 13.1857 101.217 14.013H93.4026ZM48.0986 33.892L54.0736 5.69199H75.5546L74.4226 11.162H60.7516L59.5076 16.981H72.0776L70.9076 22.449H58.3306L57.0806 28.424H70.7506L69.5796 33.892H48.0986ZM35.0136 33.892L40.9906 5.69199H48.8026L42.8256 33.892H35.0136ZM19.1196 33.892H11.3076L17.2826 5.69199H37.2416L36.1076 11.162H23.9626L22.5626 17.725H33.8436L32.6716 23.192H21.3846L19.1196 33.892Z" fill="white"/>
<path d="M134.368 5.77637H141.997V6.82037H134.368V5.77637ZM134.368 12.4344H141.997V13.4794H134.368V12.4344ZM134.368 19.2694H141.997V20.3134H134.368V19.2694ZM134.368 26.1954H141.997V27.2384H134.368V26.1954ZM134.368 32.8774H141.997V33.9214H134.368V32.8774Z" fill="white"/>
<path d="M0 5.75098H8.345V6.79398H0V5.75098ZM0 12.409H8.345V13.451H0V12.409ZM0 19.244H8.345V20.288H0V19.244ZM0 26.17H8.345V27.214H0V26.17ZM0 32.851H8.345V33.895H0V32.851Z" fill="white"/>
</svg>
