<svg width="12" height="13" viewBox="0 0 12 13" fill="none" xmlns="http://www.w3.org/2000/svg">
<path d="M11.2074 10.602H10.501V4.37301C10.501 4.31182 10.4772 4.25314 10.4347 4.20988C10.3922 4.16661 10.3346 4.14231 10.2746 4.14231H8.90479C8.84474 4.14231 8.78715 4.16661 8.74469 4.20988C8.70222 4.25314 8.67837 4.31182 8.67837 4.37301V10.602H7.69799V5.65572C7.69799 5.59453 7.67414 5.53585 7.63168 5.49259C7.58922 5.44932 7.53163 5.42502 7.47158 5.42502H6.11309C6.05304 5.42502 5.99545 5.44932 5.95299 5.49259C5.91053 5.53585 5.88667 5.59453 5.88667 5.65572V10.602H4.91309V7.39984C4.91309 7.33865 4.88923 7.27997 4.84677 7.2367C4.80431 7.19344 4.74672 7.16913 4.68667 7.16913H3.32818C3.26813 7.16913 3.21054 7.19344 3.16808 7.2367C3.12562 7.27997 3.10177 7.33865 3.10177 7.39984V10.602H2.35686V2.83422C2.35686 2.77303 2.33301 2.71435 2.29055 2.67109C2.24808 2.62782 2.1905 2.60352 2.13045 2.60352C2.0704 2.60352 2.01281 2.62782 1.97035 2.67109C1.92789 2.71435 1.90403 2.77303 1.90403 2.83422V10.8327C1.90403 10.8939 1.92789 10.9526 1.97035 10.9958C2.01281 11.0391 2.0704 11.0634 2.13045 11.0634H11.1825C11.2426 11.0634 11.3002 11.0391 11.3426 10.9958C11.3851 10.9526 11.4089 10.8939 11.4089 10.8327C11.4089 10.7715 11.3851 10.7128 11.3426 10.6696C11.3002 10.6263 11.2426 10.602 11.1825 10.602H11.2074ZM9.1312 4.60371H10.0482V10.602H9.1312V4.60371ZM6.3395 5.88642H7.24516V10.602H6.3395V5.88642ZM3.54328 7.63054H4.44894V10.602H3.54328V7.63054ZM0.792333 3.71551H1.19988C1.25993 3.71551 1.31752 3.6912 1.35998 3.64793C1.40244 3.60467 1.4263 3.54599 1.4263 3.4848C1.4263 3.42362 1.40244 3.36494 1.35998 3.32167C1.31752 3.2784 1.25993 3.2541 1.19988 3.2541H0.792333C0.732284 3.2541 0.674694 3.2784 0.632233 3.32167C0.589772 3.36494 0.565918 3.42362 0.565918 3.4848C0.565918 3.54599 0.589772 3.60467 0.632233 3.64793C0.674694 3.6912 0.732284 3.71551 0.792333 3.71551ZM0.792333 5.09742H1.19988C1.25993 5.09742 1.31752 5.07311 1.35998 5.02985C1.40244 4.98658 1.4263 4.9279 1.4263 4.86671C1.4263 4.80553 1.40244 4.74685 1.35998 4.70358C1.31752 4.66032 1.25993 4.63601 1.19988 4.63601H0.792333C0.732284 4.63601 0.674694 4.66032 0.632233 4.70358C0.589772 4.74685 0.565918 4.80553 0.565918 4.86671C0.565918 4.9279 0.589772 4.98658 0.632233 5.02985C0.674694 5.07311 0.732284 5.09742 0.792333 5.09742ZM0.792333 6.47702H1.19988C1.25993 6.47702 1.31752 6.45272 1.35998 6.40945C1.40244 6.36619 1.4263 6.30751 1.4263 6.24632C1.4263 6.18513 1.40244 6.12645 1.35998 6.08319C1.31752 6.03992 1.25993 6.01562 1.19988 6.01562H0.792333C0.732284 6.01562 0.674694 6.03992 0.632233 6.08319C0.589772 6.12645 0.565918 6.18513 0.565918 6.24632C0.565918 6.30751 0.589772 6.36619 0.632233 6.40945C0.674694 6.45272 0.732284 6.47702 0.792333 6.47702ZM0.792333 7.85894H1.19988C1.25993 7.85894 1.31752 7.83463 1.35998 7.79136C1.40244 7.7481 1.4263 7.68942 1.4263 7.62823C1.4263 7.56705 1.40244 7.50837 1.35998 7.4651C1.31752 7.42184 1.25993 7.39753 1.19988 7.39753H0.792333C0.732284 7.39753 0.674694 7.42184 0.632233 7.4651C0.589772 7.50837 0.565918 7.56705 0.565918 7.62823C0.565918 7.68942 0.589772 7.7481 0.632233 7.79136C0.674694 7.83463 0.732284 7.85894 0.792333 7.85894ZM0.792333 9.24085H1.19988C1.25993 9.24085 1.31752 9.21654 1.35998 9.17328C1.40244 9.13001 1.4263 9.07133 1.4263 9.01015C1.4263 8.94896 1.40244 8.89028 1.35998 8.84701C1.31752 8.80375 1.25993 8.77944 1.19988 8.77944H0.792333C0.732284 8.77944 0.674694 8.80375 0.632233 8.84701C0.589772 8.89028 0.565918 8.94896 0.565918 9.01015C0.565918 9.07133 0.589772 9.13001 0.632233 9.17328C0.674694 9.21654 0.732284 9.24085 0.792333 9.24085ZM0.792333 10.6228H1.19988C1.25993 10.6228 1.31752 10.5985 1.35998 10.5552C1.40244 10.5119 1.4263 10.4532 1.4263 10.3921C1.4263 10.3309 1.40244 10.2722 1.35998 10.2289C1.31752 10.1857 1.25993 10.1614 1.19988 10.1614H0.792333C0.732284 10.1614 0.674694 10.1857 0.632233 10.2289C0.589772 10.2722 0.565918 10.3309 0.565918 10.3921C0.565918 10.4532 0.589772 10.5119 0.632233 10.5552C0.674694 10.5985 0.732284 10.6228 0.792333 10.6228Z" fill="#777777"/>
<path d="M3.4236 5.3282C3.39425 5.33399 3.36632 5.34565 3.34142 5.3625C3.31652 5.37934 3.29514 5.40104 3.27851 5.42635C3.26188 5.45166 3.25033 5.48007 3.24453 5.50995C3.23874 5.53983 3.2388 5.57058 3.24473 5.60043C3.25485 5.65375 3.2831 5.70173 3.32452 5.73591C3.36593 5.77009 3.41785 5.78829 3.47114 5.7873H3.51416C3.6568 5.75731 6.81529 5.09519 9.02058 2.6682L9.00473 2.88275C9.001 2.94359 9.02105 3.00346 9.06051 3.04928C9.09996 3.0951 9.15561 3.12315 9.21529 3.12729H9.23114C9.28891 3.1274 9.34453 3.105 9.38663 3.06469C9.42872 3.02437 9.45409 2.96919 9.45756 2.91043L9.50963 1.96686C9.51215 1.93205 9.50687 1.89712 9.49422 1.86469C9.48156 1.83226 9.46185 1.80318 9.43656 1.77963C9.41128 1.75609 9.38108 1.7387 9.34824 1.72877C9.31541 1.71884 9.28079 1.71663 9.24699 1.72231L8.34133 1.87458C8.3116 1.87942 8.28309 1.89019 8.25744 1.90626C8.2318 1.92234 8.2095 1.9434 8.19184 1.96825C8.17418 1.9931 8.1615 2.02125 8.15452 2.0511C8.14753 2.08094 8.14639 2.1119 8.15114 2.14219C8.1559 2.17249 8.16647 2.20153 8.18224 2.22767C8.19801 2.2538 8.21869 2.27652 8.24307 2.29451C8.26746 2.31251 8.29509 2.32543 8.32438 2.33255C8.35367 2.33966 8.38405 2.34083 8.41378 2.33598L8.73982 2.28292C6.63643 4.66378 3.45756 5.32359 3.4236 5.3282Z" fill="#777777"/>
</svg>
