<svg width="11" height="11" viewBox="0 0 11 11" fill="none" xmlns="http://www.w3.org/2000/svg">
<path d="M9.375 4.50154H9.0225C9.08411 3.89035 9.25695 3.29557 9.5325 2.74654C9.67537 2.47881 9.75007 2.18001 9.75 1.87654C9.75033 1.59219 9.68595 1.31149 9.56175 1.05569C9.43755 0.799897 9.25678 0.575712 9.03312 0.400112C8.80946 0.224511 8.54879 0.102098 8.27083 0.0421412C7.99287 -0.0178161 7.70491 -0.0137461 7.42875 0.0540431C7.00487 0.154202 6.6302 0.401327 6.37125 0.751543H3.375C3.27558 0.752276 3.18025 0.791213 3.10875 0.860293L0.10875 3.86029C0.03967 3.9318 0.000732672 4.02712 0 4.12654V10.1265C0.000296761 10.2259 0.0399009 10.3211 0.110163 10.3914C0.180425 10.4616 0.275635 10.5012 0.375 10.5015H8.625C8.72437 10.5012 8.81958 10.4616 8.88984 10.3914C8.9601 10.3211 8.9997 10.2259 9 10.1265V7.87654H9.75C9.84937 7.87625 9.94458 7.83664 10.0148 7.76638C10.0851 7.69612 10.1247 7.60091 10.125 7.50154V6.75154C10.2244 6.75125 10.3196 6.71164 10.3898 6.64138C10.4601 6.57112 10.4997 6.47591 10.5 6.37654V5.62654C10.4991 5.32844 10.3803 5.0428 10.1695 4.83201C9.95874 4.62122 9.6731 4.50241 9.375 4.50154ZM6.78375 1.58779C6.83113 1.40664 6.92305 1.2402 7.05115 1.10362C7.17925 0.967042 7.33947 0.864657 7.51722 0.805778C7.69498 0.746899 7.88463 0.733395 8.06893 0.766494C8.25324 0.799592 8.42634 0.878243 8.5725 0.995293C8.7064 1.09971 8.81457 1.23345 8.88868 1.38623C8.96279 1.539 9.00088 1.70674 9 1.87654C8.99962 2.05677 8.95589 2.23427 8.8725 2.39404C8.53791 3.05155 8.33173 3.76682 8.265 4.50154H7.485C7.45433 3.78558 7.2593 3.08628 6.915 2.45779C6.83523 2.32927 6.78246 2.18586 6.7599 2.03629C6.73733 1.88672 6.74545 1.73413 6.78375 1.58779ZM8.25 9.75154H0.75V4.50154H3.375C3.47436 4.50125 3.56958 4.46164 3.63984 4.39138C3.7101 4.32112 3.7497 4.22591 3.75 4.12654V1.50154H6.045C5.94834 1.96595 6.03143 2.44974 6.2775 2.85529C6.54989 3.36345 6.70614 3.92571 6.735 4.50154H6.375C6.0769 4.50241 5.79126 4.62122 5.58047 4.83201C5.36968 5.0428 5.25087 5.32844 5.25 5.62654V6.37654C5.2503 6.47591 5.2899 6.57112 5.36016 6.64138C5.43042 6.71164 5.52564 6.75125 5.625 6.75154V7.50154C5.6253 7.60091 5.6649 7.69612 5.73516 7.76638C5.80542 7.83664 5.90064 7.87625 6 7.87654H8.25V9.75154ZM9.75 6.00154H6V5.62654C6.0003 5.52718 6.0399 5.43197 6.11016 5.36171C6.18042 5.29144 6.27564 5.25184 6.375 5.25154H9.375C9.47437 5.25184 9.56958 5.29144 9.63984 5.36171C9.7101 5.43197 9.7497 5.52718 9.75 5.62654V6.00154Z" fill="#777777"/>
<path d="M4.30278 7.6869C4.30278 7.97565 4.45278 8.1894 4.27653 8.47065C4.1423 8.61127 3.99114 8.73471 3.82653 8.83815C3.72354 9.00307 3.60006 9.15428 3.45903 9.28815C3.18528 9.46065 2.96028 9.3219 2.67903 9.3219C2.37153 9.3219 2.14278 9.4644 1.85403 9.2544C1.72329 9.11263 1.60059 8.96365 1.48653 8.80815C1.30147 8.70177 1.14459 8.55261 1.02903 8.37315C0.983806 8.1457 0.991504 7.91089 1.05153 7.6869C0.991634 7.46415 0.983934 7.2306 1.02903 7.0044C1.14147 6.82237 1.29907 6.67252 1.48653 6.5694C1.60617 6.39596 1.74313 6.23514 1.89528 6.0894C2.16903 5.9169 2.39403 6.05189 2.67903 6.05189C2.96403 6.05189 3.18153 5.91315 3.45903 6.0894C3.60084 6.22114 3.72443 6.37121 3.82653 6.53565C3.99114 6.63908 4.14229 6.76253 4.27653 6.90315C4.45278 7.1844 4.30278 7.4019 4.30278 7.6869Z" fill="#777777"/>
</svg>
