<svg width="13" height="11" viewBox="0 0 13 11" fill="none" xmlns="http://www.w3.org/2000/svg">
<path d="M8.64962 2.37911L10.4255 4.15499C10.4615 4.19108 10.4817 4.23998 10.4817 4.29097C10.4817 4.34195 10.4615 4.39085 10.4255 4.42694L6.12512 8.72733L4.2979 8.93022C4.24073 8.93663 4.18284 8.93009 4.12854 8.91107C4.07424 8.89206 4.02492 8.86106 3.98424 8.82038C3.94356 8.7797 3.91256 8.73037 3.89354 8.67607C3.87453 8.62177 3.86799 8.56389 3.8744 8.50672L4.07729 6.67949L8.37768 2.37911C8.41377 2.34309 8.46267 2.32287 8.51365 2.32287C8.56463 2.32287 8.61353 2.34309 8.64962 2.37911ZM11.8396 1.92811L10.8783 0.966828C10.734 0.822968 10.5385 0.742188 10.3348 0.742188C10.131 0.742187 9.93551 0.822968 9.79118 0.966828L9.0939 1.66411C9.05789 1.70019 9.03766 1.74909 9.03766 1.80008C9.03766 1.85106 9.05789 1.89996 9.0939 1.93605L10.8698 3.71194C10.9059 3.74795 10.9548 3.76817 11.0058 3.76817C11.0567 3.76817 11.1056 3.74795 11.1417 3.71194L11.839 3.01466C11.9829 2.87033 12.0637 2.67486 12.0637 2.47108C12.0637 2.2673 11.9829 2.07182 11.839 1.92749L11.8396 1.92811ZM8.28357 7.55766V9.5621H1.98179V3.26094H6.50401C6.56661 3.26021 6.62654 3.23549 6.67146 3.19188L7.46223 2.40477C7.4954 2.3717 7.51799 2.32952 7.52715 2.28358C7.53631 2.23765 7.53163 2.19003 7.51369 2.14676C7.49576 2.1035 7.46538 2.06653 7.42641 2.04055C7.38744 2.01457 7.34163 2.00074 7.29479 2.00083H1.66707C1.41634 2.00083 1.17587 2.10043 0.998578 2.27773C0.821283 2.45502 0.72168 2.69548 0.72168 2.94622L0.72168 9.87744C0.722004 10.128 0.82175 10.3681 0.999009 10.5451C1.17627 10.7222 1.41655 10.8216 1.66707 10.8216H8.59829C8.72244 10.8216 8.84538 10.7972 8.96007 10.7496C9.07477 10.7021 9.17899 10.6325 9.26678 10.5447C9.35457 10.4569 9.42421 10.3527 9.47172 10.238C9.51923 10.1233 9.54368 10.0004 9.54368 9.87622V6.76994C9.54376 6.7231 9.52994 6.67729 9.50396 6.63832C9.47798 6.59935 9.44101 6.56897 9.39774 6.55104C9.35447 6.5331 9.30686 6.52842 9.26092 6.53758C9.21499 6.54674 9.17281 6.56933 9.13973 6.60249L8.35201 7.39022C8.3084 7.43513 8.28368 7.49506 8.28296 7.55766H8.28357Z" fill="#1D4273"/>
</svg>
