<svg width="30" height="30" viewBox="0 0 30 30" fill="none" xmlns="http://www.w3.org/2000/svg">
<path d="M0.714286 4.82208H5.77857C5.95258 5.78487 6.47125 6.65735 7.24337 7.28606C8.01549 7.91477 8.9916 8.25943 10 8.25943C11.0084 8.25943 11.9845 7.91477 12.7566 7.28606C13.5287 6.65735 14.0474 5.78487 14.2214 4.82208H29.2857C29.4752 4.82208 29.6568 4.74913 29.7908 4.61929C29.9247 4.48945 30 4.31334 30 4.12972C30 3.94609 29.9247 3.76999 29.7908 3.64014C29.6568 3.5103 29.4752 3.43735 29.2857 3.43735H14.2214C14.0474 2.47457 13.5287 1.60208 12.7566 0.973376C11.9845 0.344667 11.0084 0 10 0C8.9916 0 8.01549 0.344667 7.24337 0.973376C6.47125 1.60208 5.95258 2.47457 5.77857 3.43735H0.714286C0.524845 3.43735 0.343164 3.5103 0.209209 3.64014C0.0752549 3.76999 0 3.94609 0 4.12972C0 4.31334 0.0752549 4.48945 0.209209 4.61929C0.343164 4.74913 0.524845 4.82208 0.714286 4.82208ZM10 1.36027C10.5651 1.36027 11.1175 1.52269 11.5873 1.827C12.0572 2.13131 12.4234 2.56384 12.6397 3.06989C12.8559 3.57594 12.9125 4.13279 12.8022 4.67001C12.692 5.20723 12.4199 5.7007 12.0203 6.08801C11.6207 6.47533 11.1116 6.73909 10.5574 6.84595C10.0032 6.95281 9.42869 6.89797 8.90662 6.68835C8.38454 6.47874 7.93832 6.12377 7.62437 5.66834C7.31043 5.21291 7.14286 4.67746 7.14286 4.12972C7.14286 3.39521 7.44388 2.69079 7.97969 2.17142C8.51551 1.65205 9.24224 1.36027 10 1.36027ZM29.2857 13.8228H24.2214C24.0474 12.86 23.5287 11.9875 22.7566 11.3588C21.9845 10.7301 21.0084 10.3854 20 10.3854C18.9916 10.3854 18.0155 10.7301 17.2434 11.3588C16.4713 11.9875 15.9526 12.86 15.7786 13.8228H0.714286C0.524845 13.8228 0.343164 13.8957 0.209209 14.0256C0.0752549 14.1554 0 14.3315 0 14.5152C0 14.6988 0.0752549 14.8749 0.209209 15.0047C0.343164 15.1346 0.524845 15.2075 0.714286 15.2075H15.7786C15.9526 16.1703 16.4713 17.0428 17.2434 17.6715C18.0155 18.3002 18.9916 18.6449 20 18.6449C21.0084 18.6449 21.9845 18.3002 22.7566 17.6715C23.5287 17.0428 24.0474 16.1703 24.2214 15.2075H29.2857C29.4752 15.2075 29.6568 15.1346 29.7908 15.0047C29.9247 14.8749 30 14.6988 30 14.5152C30 14.3315 29.9247 14.1554 29.7908 14.0256C29.6568 13.8957 29.4752 13.8228 29.2857 13.8228ZM20 17.2846C19.4349 17.2846 18.8825 17.1222 18.4127 16.8179C17.9428 16.5136 17.5766 16.081 17.3603 15.575C17.1441 15.0689 17.0875 14.5121 17.1978 13.9749C17.308 13.4376 17.5801 12.9442 17.9797 12.5569C18.3793 12.1695 18.8884 11.9058 19.4426 11.7989C19.9968 11.6921 20.5713 11.7469 21.0934 11.9565C21.6155 12.1661 22.0617 12.5211 22.3756 12.9765C22.6896 13.432 22.8571 13.9674 22.8571 14.5152C22.8571 15.2497 22.5561 15.9541 22.0203 16.4734C21.4845 16.9928 20.7578 17.2846 20 17.2846ZM29.2857 24.2082H14.2214C14.0474 23.2454 13.5287 22.373 12.7566 21.7442C11.9845 21.1155 11.0084 20.7709 10 20.7709C8.9916 20.7709 8.01549 21.1155 7.24337 21.7442C6.47125 22.373 5.95258 23.2454 5.77857 24.2082H0.714286C0.524845 24.2082 0.343164 24.2812 0.209209 24.411C0.0752549 24.5409 0 24.717 0 24.9006C0 25.0842 0.0752549 25.2603 0.209209 25.3902C0.343164 25.52 0.524845 25.593 0.714286 25.593H5.77857C5.95258 26.5557 6.47125 27.4282 7.24337 28.0569C8.01549 28.6856 8.9916 29.0303 10 29.0303C11.0084 29.0303 11.9845 28.6856 12.7566 28.0569C13.5287 27.4282 14.0474 26.5557 14.2214 25.593H29.2857C29.4752 25.593 29.6568 25.52 29.7908 25.3902C29.9247 25.2603 30 25.0842 30 24.9006C30 24.717 29.9247 24.5409 29.7908 24.411C29.6568 24.2812 29.4752 24.2082 29.2857 24.2082ZM10 27.67C9.43491 27.67 8.88251 27.5076 8.41266 27.2033C7.9428 26.899 7.57659 26.4665 7.36034 25.9604C7.14409 25.4544 7.08751 24.8975 7.19776 24.3603C7.308 23.8231 7.58012 23.3296 7.97969 22.9423C8.37927 22.555 8.88837 22.2912 9.4426 22.1844C9.99683 22.0775 10.5713 22.1323 11.0934 22.342C11.6155 22.5516 12.0617 22.9065 12.3756 23.362C12.6896 23.8174 12.8571 24.3528 12.8571 24.9006C12.8571 25.6351 12.5561 26.3395 12.0203 26.8589C11.4845 27.3783 10.7578 27.67 10 27.67Z" fill="#E30513"/>
</svg>
