<svg width="20" height="20" viewBox="0 0 20 20" fill="none" xmlns="http://www.w3.org/2000/svg">
<path d="M4.08613 4.06796C4.11359 4.06798 4.14094 4.06442 4.16756 4.05736L7.92864 3.07572C8.01524 3.0531 8.08974 2.99531 8.13574 2.91505C8.18174 2.83479 8.19548 2.73864 8.17393 2.64775C8.15238 2.55686 8.0973 2.47868 8.02083 2.43041C7.94435 2.38213 7.85273 2.36772 7.76612 2.39033L4.00538 3.37198C3.92654 3.39372 3.85788 3.44469 3.8121 3.51547C3.76632 3.58624 3.74653 3.67203 3.75638 3.75694C3.76623 3.84186 3.80506 3.92015 3.86569 3.97733C3.92631 4.03451 4.00463 4.06671 4.08613 4.06796ZM4.70759 4.83597C4.72922 4.92683 4.78429 5.00498 4.86073 5.0533C4.93718 5.10161 5.02875 5.11616 5.1154 5.09374L8.87951 4.11492C8.96616 4.0924 9.04073 4.03467 9.08683 3.95445C9.13292 3.87422 9.14676 3.77806 9.1253 3.68713C9.10384 3.59619 9.04883 3.51793 8.97239 3.46956C8.89594 3.42118 8.80432 3.40666 8.71766 3.42918L4.95322 4.408C4.9103 4.41916 4.8699 4.43908 4.83433 4.46663C4.79875 4.49418 4.7687 4.52882 4.74589 4.56856C4.72308 4.60831 4.70796 4.65238 4.70138 4.69827C4.69481 4.74415 4.69692 4.79094 4.70759 4.83597ZM7.51377 5.027L5.90207 5.44437C5.85916 5.45548 5.81876 5.47535 5.78317 5.50284C5.74758 5.53033 5.7175 5.56491 5.69465 5.6046C5.67179 5.64429 5.65661 5.68832 5.64997 5.73417C5.64333 5.78001 5.64536 5.82679 5.65594 5.87181C5.66652 5.91684 5.68545 5.95924 5.71165 5.99659C5.73784 6.03394 5.77079 6.0655 5.80861 6.08949C5.84644 6.11347 5.88839 6.12941 5.93208 6.13638C5.97576 6.14335 6.02033 6.14122 6.06324 6.13011L7.67494 5.71274C7.76159 5.69031 7.8362 5.63267 7.88236 5.55251C7.92852 5.47235 7.94244 5.37623 7.92107 5.2853C7.89969 5.19436 7.84478 5.11607 7.76839 5.06762C7.69201 5.01918 7.60042 5.00457 7.51377 5.027ZM12.7863 12.0058C12.0727 12.0068 11.3885 12.3047 10.8839 12.8343C10.3793 13.3638 10.0954 14.0818 10.0945 14.8307C10.2294 18.5733 15.3431 18.5723 15.4781 14.8307C15.4772 14.0818 15.1933 13.3638 14.6887 12.8343C14.1841 12.3047 13.4999 12.0068 12.7863 12.0058ZM12.7863 16.9494C10.1181 16.8607 10.1187 12.8007 12.7863 12.7121C15.4542 12.8011 15.4535 16.8611 12.7863 16.9494Z" fill="white"/>
<path d="M19.0001 16.9182C19.2982 16.5779 19.6002 16.2412 19.9059 15.9083C19.938 15.8733 19.9628 15.8316 19.9788 15.786C19.9949 15.7404 20.0018 15.6918 19.9991 15.6433C19.9964 15.5948 19.9842 15.5473 19.9632 15.504C19.9423 15.4607 19.913 15.4223 19.8773 15.3914C18.9041 14.5469 17.8006 13.8829 16.6145 13.4281C16.6165 13.343 16.6255 13.2583 16.6414 13.1749L18.5075 12.7017C18.5761 12.6829 18.6374 12.642 18.6826 12.5846C18.7279 12.5273 18.7548 12.4565 18.7596 12.3823C18.7645 12.308 18.747 12.234 18.7096 12.1708C18.6722 12.1075 18.6168 12.0582 18.5513 12.0298C17.6034 11.6395 16.6981 11.1438 15.8507 10.5513L18.5075 9.87687C18.5761 9.85805 18.6374 9.81709 18.6826 9.75977C18.7279 9.70244 18.7548 9.63165 18.7596 9.5574C18.7645 9.48314 18.747 9.40916 18.7096 9.34591C18.6722 9.28267 18.6168 9.23334 18.5513 9.20491C16.3954 8.32371 14.4774 6.90303 12.9641 5.06647C11.8035 3.64694 10.9112 2.00838 10.3349 0.238406C10.3074 0.154914 10.2512 0.0852291 10.1772 0.0430262C10.1033 0.000823346 10.0169 -0.01085 9.93521 0.0102972L0.254917 2.5495C0.209893 2.56168 0.167738 2.58344 0.131075 2.61345C0.0944115 2.64345 0.0640248 2.68105 0.0418056 2.72391C0.0195864 2.76677 0.00601 2.81397 0.00192148 2.86258C-0.00216704 2.91118 0.00331973 2.96015 0.0180403 3.00643C0.266439 3.76077 0.570872 4.49348 0.928533 5.19782C0.635803 5.2974 0.122347 5.33059 0.0409204 5.54811C0.0186676 5.59103 0.00514434 5.63832 0.00120599 5.68701C-0.00273236 5.73569 0.00299994 5.78471 0.0180403 5.83095C0.266424 6.58541 0.570857 7.31824 0.928533 8.0227L0.254917 8.19925C0.209854 8.21142 0.167662 8.23319 0.13097 8.26322C0.0942781 8.29325 0.0638729 8.33089 0.0416495 8.37379C0.0194261 8.41669 0.0058607 8.46393 0.00179883 8.51258C-0.00226305 8.56122 0.00326563 8.61022 0.0180403 8.65653C1.16872 12.1644 3.48909 15.1175 6.55132 16.9712C6.21633 17.8157 5.89685 18.6668 5.59304 19.5242C5.56734 19.597 5.56526 19.6768 5.58714 19.751C5.60901 19.8253 5.65361 19.8899 5.71403 19.9348C5.77445 19.9798 5.8473 20.0025 5.9213 19.9996C5.9953 19.9967 6.06631 19.9682 6.12332 19.9186C7.07719 19.0871 8.16666 18.4437 9.33899 18.0196C9.64282 18.1647 10.1482 18.1153 10.412 18.2593C10.7138 18.6124 10.7946 19.3695 11.3296 19.5341C11.8386 19.7321 12.3504 19.1527 12.7858 19.0679C13.2252 19.153 13.7259 19.7318 14.2441 19.5337C14.7774 19.3695 14.8585 18.61 15.1616 18.2579C15.4234 18.1167 15.9295 18.1643 16.2326 18.0196C17.4051 18.4436 18.4946 19.087 19.4486 19.9186C19.5056 19.9683 19.5767 19.9968 19.6508 19.9997C19.7248 20.0027 19.7978 19.9799 19.8582 19.9349C19.9187 19.8899 19.9633 19.8252 19.9851 19.7509C20.0069 19.6765 20.0047 19.5967 19.9789 19.5238C19.6757 18.6668 19.3467 17.7915 19.0001 16.9182ZM16.7424 12.4228C16.7458 12.2911 16.7183 12.1605 16.6624 12.0426C16.6065 11.9246 16.5239 11.8228 16.4217 11.7462C16.7313 11.9306 17.0472 12.1032 17.3685 12.2639L16.7424 12.4228ZM16.2713 11.6572C15.9584 11.4927 15.4385 11.551 15.1599 11.4016C15.0277 11.2207 14.922 11.02 14.8464 10.8063L14.9732 10.7741C15.391 11.0921 15.8241 11.3868 16.2713 11.6572ZM9.80163 0.773366C11.1351 4.5969 13.8554 7.71185 17.3689 9.43866L14.3861 10.1964C13.8464 9.82779 13.2612 10.4906 12.7858 10.5933C12.62 10.5552 12.4627 10.484 12.3225 10.3836C11.3837 9.75611 10.9295 10.2003 10.5651 11.1625L8.69565 11.6361C5.56882 10.438 2.07287 7.0799 0.778467 3.14026L9.80163 0.773366ZM1.27005 5.83624C2.83128 8.87793 6.29526 11.5319 8.54828 12.3342C8.64148 12.3667 8.74255 12.3643 8.83428 12.3274C8.84992 12.697 8.89097 13.0648 8.95709 13.4281C8.53152 13.5905 8.11597 13.7805 7.71282 13.9969C4.50934 12.3462 2.02843 9.47268 0.77813 5.96478L1.27005 5.83624ZM3.53619 13.5333C2.33983 12.1492 1.4042 10.5397 0.778803 8.79L1.27005 8.66112C2.63746 11.0993 4.62364 13.0906 7.0069 14.4129C6.50889 14.7145 6.04478 15.0738 5.62333 15.4842C4.86697 14.9091 4.16773 14.2555 3.53619 13.5333ZM7.27473 16.9835C7.29965 16.9216 7.30715 16.8534 7.29636 16.7871C7.28557 16.7207 7.25693 16.659 7.21383 16.6092C6.94773 16.3027 6.67842 15.9993 6.40596 15.6989C6.93777 15.2665 7.51054 14.8926 8.11524 14.5831C7.86928 15.2766 8.66806 15.688 8.94599 16.1393C8.99747 16.5019 8.74377 17.0577 8.85413 17.4564C8.07347 17.7608 7.32861 18.158 6.63409 18.6403C6.83934 18.0898 7.05367 17.5362 7.27473 16.9835ZM15.5587 17.4468C15.279 17.454 15.0059 17.5367 14.7656 17.6869C14.5555 17.8799 14.3965 18.1266 14.304 18.403C14.2299 18.5747 14.1176 18.8338 14.0341 18.8624C13.6653 18.8105 13.2172 18.3349 12.7858 18.3617C12.3538 18.3352 11.9076 18.8081 11.5385 18.8631C11.2643 18.6156 11.1613 17.9175 10.8073 17.6884C10.4877 17.4041 9.83394 17.515 9.51866 17.3215C9.44598 16.9433 9.74275 16.3328 9.58596 15.9221C9.48771 15.4984 8.88071 15.183 8.74814 14.8306C8.88946 14.4775 9.4729 14.1633 9.58596 13.7381C9.74275 13.3299 9.44464 12.7152 9.51832 12.3398C9.83461 12.1456 10.4867 12.2575 10.8057 11.974C11.0149 11.7804 11.1736 11.5339 11.2666 11.2579C11.3508 11.0792 11.4477 10.8084 11.557 10.7953C11.9406 10.8882 12.346 11.3133 12.7855 11.2992C13.2162 11.3253 13.666 10.8515 14.0324 10.7978C14.3083 11.0435 14.4086 11.7448 14.7639 11.9726C15.0822 12.2575 15.738 12.1452 16.0526 12.3395C16.125 12.7173 15.8282 13.3282 15.9853 13.7388C16.098 14.1664 16.6875 14.4796 16.8231 14.8303C16.6909 15.1845 16.0819 15.4966 15.985 15.9228C15.8262 16.3306 16.1276 16.9461 16.0529 17.3211C16.0025 17.3935 15.7249 17.4271 15.5587 17.4468ZM16.7168 17.456C16.8278 17.0591 16.5738 16.5016 16.6249 16.14C16.9022 15.688 17.702 15.2766 17.456 14.5828C18.0586 14.8963 18.631 15.2699 19.1653 15.6986C18.9029 15.9881 18.633 16.2907 18.3574 16.6096C18.3143 16.6594 18.2856 16.721 18.2747 16.7874C18.2639 16.8537 18.2713 16.9219 18.2962 16.9839C18.5164 17.5331 18.7301 18.0852 18.9372 18.64C18.2426 18.1576 17.4976 17.7604 16.7168 17.456Z" fill="white"/>
</svg>
