<svg width="14" height="14" viewBox="0 0 14 14" fill="none" xmlns="http://www.w3.org/2000/svg">
<g clip-path="url(#clip0_271_2226)">
<path d="M10.2796 3.61119V12.8146C10.2796 13.17 9.98888 13.4607 9.63354 13.4607H1.21835C0.863011 13.4607 0.572266 13.17 0.572266 12.8146V1.18514C0.572266 0.829808 0.863011 0.539062 1.21835 0.539062H7.20426L10.2796 3.61119Z" fill="white"/>
<path opacity="0.04" d="M10.2796 3.61125V12.8147C10.2796 13.17 9.98888 13.4608 9.63354 13.4608H1.21835C0.863011 13.4608 0.572266 13.17 0.572266 12.8147V12.4658C5.6214 12.2881 9.29433 8.10153 9.29433 3.0104V2.62598L10.2796 3.61125Z" fill="black"/>
<path d="M10.2804 3.61257H7.88646C7.51033 3.61257 7.20541 3.30765 7.20541 2.93152V0.537598L10.2804 3.61257ZM9.05105 9.30672V9.89769C9.05105 9.95997 8.9986 10.0124 8.93632 10.0124H5.62891C5.56662 10.0124 5.51416 9.95997 5.51416 9.89769V9.30672C5.51416 9.24443 5.56662 9.19525 5.62891 9.19525H8.93632C8.9986 9.19525 9.05105 9.24443 9.05105 9.30672Z" fill="#777777"/>
<path opacity="0.04" d="M9.05179 9.3069V9.89807C9.05179 9.95945 8.99688 10.0111 8.9355 10.0111H5.62773C5.56635 10.0111 5.51465 9.95945 5.51465 9.89807V9.70102H8.03423C8.35403 9.70102 8.6254 9.48457 8.70937 9.19385H8.9355C8.99688 9.19385 9.05179 9.24552 9.05179 9.3069Z" fill="black"/>
<path d="M9.05099 7.17299V7.76396C9.05099 7.82624 8.99855 7.87869 8.93626 7.87869H1.91699C1.85471 7.87869 1.80225 7.82624 1.80225 7.76396V7.17299C1.80225 7.1107 1.85471 7.06152 1.91699 7.06152H8.93626C8.99855 7.06152 9.05099 7.1107 9.05099 7.17299Z" fill="#777777"/>
<path opacity="0.04" d="M9.05222 7.17409V7.76526C9.05222 7.82664 8.99731 7.87832 8.93593 7.87832H1.9163C1.85492 7.87832 1.80322 7.82664 1.80322 7.76526V7.56498H8.03465C8.35446 7.56498 8.62259 7.35178 8.7098 7.06104H8.93593C8.99731 7.06103 9.05222 7.1095 9.05222 7.17409Z" fill="black"/>
<path d="M9.05099 5.0392V5.63017C9.05099 5.69245 8.99855 5.7449 8.93626 5.7449H1.91699C1.85471 5.7449 1.80225 5.69245 1.80225 5.63017V5.0392C1.80225 4.97691 1.85471 4.92773 1.91699 4.92773H8.93626C8.99855 4.92773 9.05099 4.97691 9.05099 5.0392Z" fill="#777777"/>
<path opacity="0.04" d="M9.05222 5.03807V5.62922C9.05222 5.69383 8.99731 5.74553 8.93593 5.74553H1.9163C1.85492 5.74553 1.80322 5.69383 1.80322 5.62922V5.43217H8.03465C8.35446 5.43217 8.62259 5.21897 8.7098 4.92822H8.93593C8.99731 4.92822 9.05222 4.97669 9.05222 5.03807Z" fill="black"/>
<path d="M9.05089 11.4391V12.0301C9.05089 12.0923 8.99845 12.1448 8.93616 12.1448H5.57227C5.50998 12.1448 5.45752 12.0923 5.45752 12.0301V11.4391C5.45752 11.3768 5.50998 11.3276 5.57227 11.3276H8.93616C8.99845 11.3276 9.05089 11.3768 9.05089 11.4391Z" fill="#777777"/>
<path opacity="0.04" d="M9.05212 11.438V12.0291C9.05212 12.0938 8.99721 12.1454 8.93583 12.1454H5.57157C5.51019 12.1454 5.4585 12.0937 5.4585 12.0291V11.8321H8.03455C8.35436 11.8321 8.62249 11.6189 8.7097 11.3281H8.93583C8.99721 11.3281 9.05212 11.3766 9.05212 11.438Z" fill="black"/>
<path d="M5.66487 2.91014V3.50111C5.66487 3.56339 5.61242 3.61258 5.55014 3.61258H1.91372C1.85143 3.61258 1.80225 3.5634 1.80225 3.50111V2.91014C1.80225 2.84785 1.85143 2.79541 1.91372 2.79541H5.55014C5.61242 2.79541 5.66487 2.84785 5.66487 2.91014Z" fill="#777777"/>
<path opacity="0.04" d="M5.66352 2.91026V3.50141C5.66352 3.56278 5.61184 3.61125 5.55047 3.61125H1.91307C1.85169 3.61125 1.80322 3.56278 1.80322 3.50141V3.30112H4.6524C4.97221 3.30112 5.24357 3.08792 5.32433 2.79395H5.55047C5.61185 2.79395 5.66352 2.84888 5.66352 2.91026Z" fill="black"/>
<path d="M4.69993 10.8087C4.50063 10.9657 4.38448 11.2073 4.38448 11.4581C4.38448 11.4858 4.3858 11.5148 4.38844 11.5425C4.40295 11.6732 4.29868 11.7775 4.16802 11.763C4.1403 11.7603 4.11126 11.759 4.08354 11.759C3.83275 11.759 3.59122 11.8751 3.43415 12.0744C3.36023 12.1695 3.2124 12.1695 3.13849 12.0744C2.98274 11.8751 2.74119 11.759 2.49041 11.759C2.4627 11.759 2.43366 11.7603 2.40593 11.763C2.27526 11.7775 2.17099 11.6732 2.18551 11.5425C2.18815 11.5148 2.18947 11.4858 2.18947 11.4581C2.18947 11.2073 2.07332 10.9657 1.87401 10.8087C1.77897 10.7347 1.77897 10.5869 1.87401 10.513C2.07332 10.3559 2.18947 10.1144 2.18947 9.8636C2.18947 9.83588 2.18815 9.80817 2.18551 9.78045C2.17099 9.64978 2.27526 9.5455 2.40593 9.56002C2.43365 9.56266 2.46138 9.56398 2.48909 9.56398C2.73987 9.56398 2.98142 9.44783 3.13849 9.24852C3.2124 9.15349 3.36023 9.15349 3.43415 9.24852C3.59122 9.44783 3.83275 9.56398 4.08354 9.56398C4.11258 9.56398 4.14161 9.56266 4.17066 9.5587C4.30001 9.5455 4.40295 9.64846 4.38976 9.7778C4.3594 10.0576 4.47687 10.3374 4.69862 10.5117C4.79365 10.5869 4.79497 10.7334 4.69993 10.8087Z" fill="#777777"/>
<path opacity="0.04" d="M4.70026 10.8081C4.50127 10.9655 4.38544 11.2075 4.38544 11.457C4.38544 11.4852 4.38544 11.5149 4.38841 11.5417C4.40326 11.6724 4.2993 11.7763 4.16862 11.7629C4.1404 11.76 4.11218 11.7585 4.08398 11.7585C3.833 11.7585 3.59094 11.8743 3.435 12.0733C3.36075 12.1684 3.21225 12.1684 3.13799 12.0733C2.98652 11.8788 2.7504 11.7629 2.50537 11.76C2.75188 11.4823 3.10681 11.3219 3.47659 11.3219C3.51965 11.3219 3.56569 11.3234 3.60876 11.3278C3.8137 11.3501 3.97705 11.1867 3.95477 10.9818C3.95032 10.9387 3.94735 10.8927 3.94735 10.8496C3.94735 10.4813 4.10774 10.1249 4.38692 9.87842C4.3899 10.122 4.50424 10.3581 4.69878 10.511C4.79382 10.5868 4.79531 10.7323 4.70026 10.8081Z" fill="black"/>
<path d="M3.28653 12.3474C3.16506 12.3474 3.05305 12.293 2.9793 12.1982C2.80709 11.9778 2.60566 11.966 2.38208 11.966C2.26758 11.966 2.15899 11.9179 2.0838 11.8341C2.00821 11.7497 1.97219 11.6353 1.98494 11.5201C2.00564 11.2988 1.90945 11.0932 1.74923 10.9669C1.6555 10.8941 1.60107 10.7822 1.60107 10.6608C1.60094 10.5393 1.65537 10.4273 1.75015 10.3534C1.9082 10.2291 2.00549 10.0255 1.98467 9.79932C1.97218 9.68731 2.00821 9.57294 2.08379 9.48867C2.15886 9.40467 2.26758 9.35656 2.38195 9.35656C2.55606 9.35656 2.78695 9.36839 2.98022 9.12335C3.12588 8.93588 3.44599 8.9347 3.59375 9.12427C3.80551 9.39339 4.06414 9.35538 4.19307 9.35538C4.30692 9.35538 4.41524 9.4031 4.49044 9.48631C4.56589 9.56992 4.60257 9.6835 4.59087 9.798C4.56787 10.0099 4.65713 10.222 4.82356 10.3526C4.91861 10.428 4.97277 10.5402 4.97264 10.6613C4.97264 10.7815 4.919 10.8928 4.8254 10.9668C4.66644 11.0921 4.56872 11.2955 4.58969 11.5233C4.60218 11.6353 4.56616 11.7497 4.49057 11.8339C4.41551 11.9179 4.30679 11.966 4.19242 11.966C4.01731 11.966 3.78642 11.9535 3.59309 12.1991C3.51987 12.2931 3.408 12.3474 3.28653 12.3474ZM3.28666 11.9358C3.50304 11.6712 3.8472 11.5279 4.18821 11.5619C4.1518 11.2317 4.29079 10.8741 4.5751 10.6499C4.2989 10.4541 4.15154 10.1038 4.18926 9.7558C3.98623 9.81043 3.54064 9.70959 3.27574 9.37325C3.08486 9.64577 2.73426 9.79432 2.38707 9.7608C2.41877 10.1383 2.25741 10.468 1.99913 10.6714C2.25805 10.8527 2.42244 11.1909 2.38668 11.5614C2.75152 11.5302 3.07894 11.6798 3.28666 11.9358Z" fill="#777777"/>
<path d="M9.10537 6.32026C8.17811 7.3283 7.43852 8.45799 6.88659 9.70933C5.97135 9.53475 5.24857 9.06618 4.71826 8.30362C5.64552 7.2956 6.38511 6.16591 6.93704 4.91455C7.85228 5.08915 8.57505 5.55772 9.10537 6.32026Z" fill="#E2E2E2"/>
<path opacity="0.07" d="M9.10568 6.32025C8.17842 7.32828 7.43882 8.45797 6.88688 9.70933C6.68843 9.67285 6.49782 9.62039 6.31689 9.55314C6.56805 9.05227 6.85451 8.5743 7.16949 8.11744C7.77952 7.23823 7.48586 6.0576 6.62571 5.56845C6.736 5.35551 6.84007 5.13592 6.93737 4.91455C7.8526 5.08913 8.57538 5.5577 9.10568 6.32025Z" fill="black"/>
<path d="M4.6971 7.98168L7.19059 9.59818C7.29464 9.66563 7.32192 9.80184 7.25534 9.90353L6.99752 10.2973C6.93094 10.399 6.79472 10.4292 6.69067 10.3618L4.19718 8.74528C4.09499 8.67903 4.06585 8.54162 4.13243 8.43994L4.39025 8.04611C4.45683 7.94442 4.59491 7.91542 4.6971 7.98168ZM7.13255 4.26165L9.62604 5.87815C9.73009 5.94561 9.75738 6.0818 9.69079 6.1835L9.43418 6.57547C9.36639 6.67901 9.23138 6.70736 9.12733 6.63991L6.63384 5.0234C6.53165 4.95715 6.5013 4.82159 6.56909 4.71806L6.8257 4.32609C6.89229 4.22439 7.03036 4.1954 7.13255 4.26165Z" fill="#C7C7C7"/>
<g opacity="0.05">
<path d="M4.69681 7.98119L7.19029 9.59769C7.29434 9.66514 7.32162 9.80135 7.25505 9.90303L6.99721 10.2969C6.93064 10.3985 6.79441 10.4287 6.69036 10.3613L6.5027 10.2396C6.58824 9.95536 6.48027 9.63516 6.21829 9.46532L4.28223 8.21018L4.38996 8.04563C4.45654 7.94394 4.59462 7.91494 4.69681 7.98119ZM7.13229 4.26116L9.62577 5.87766C9.72982 5.94511 9.7571 6.08132 9.69052 6.183L9.4339 6.57497C9.36612 6.67851 9.2311 6.70686 9.12705 6.63941L8.93939 6.51775C9.02493 6.23347 8.91575 5.91512 8.65377 5.74528L6.7177 4.49015L6.82544 4.32559C6.89201 4.22391 7.0301 4.19491 7.13229 4.26116Z" fill="black"/>
</g>
<path d="M12.8786 11.2088C12.7091 11.467 12.4336 11.6128 12.1502 11.6302C11.9199 11.6443 11.6869 11.5752 11.4943 11.4176L8.78223 9.18239L9.36251 8.29736L12.5106 9.86121C13.0138 10.1109 13.1849 10.74 12.8786 11.2088Z" fill="#777777"/>
<path d="M12.5976 9.68772L10.1883 8.49081V3.50754C10.2002 3.40389 10.1604 3.32854 10.0933 3.27643C7.9753 1.16938 7.35186 0.54916 7.19373 0.391833C7.19089 0.389025 7.18764 0.385774 7.18511 0.383251L7.16039 0.358653C7.16213 0.360387 7.16381 0.362075 7.16567 0.363924L7.14601 0.344361C7.10635 0.304903 7.03783 0.272529 6.96723 0.271188C6.96519 0.271141 6.96338 0.27002 6.96133 0.27002C4.46564 0.27002 5.43053 0.27002 1.1859 0.27002C0.698975 0.27002 0.302734 0.664317 0.302734 1.14886V12.3144C0.302734 12.7989 0.698975 13.1931 1.1859 13.1931H9.30516C9.79209 13.1931 10.1883 12.7989 10.1883 12.3144V10.5929L11.3706 11.5673C11.9004 12.0004 12.6765 11.8709 13.0419 11.3144C13.4112 10.7491 13.2049 9.98891 12.5976 9.68772ZM7.22211 1.15315C7.22143 1.15247 7.22151 1.15255 7.22211 1.15315C7.22609 1.15711 7.22888 1.15985 7.23205 1.16301C7.2354 1.16634 7.23982 1.17071 7.24526 1.17614C7.24756 1.17841 7.24952 1.1804 7.25096 1.18181C7.35545 1.28569 7.78779 1.71552 9.30199 3.22094H7.61936C7.40032 3.22094 7.22211 3.0436 7.22211 2.8255L7.22211 1.15315ZM9.66881 12.3144C9.66881 12.5138 9.50569 12.6761 9.30516 12.6761H1.18591C0.985377 12.6761 0.822264 12.5138 0.822264 12.3144V1.14886C0.822264 0.949311 0.985377 0.786998 1.18591 0.786998H6.70258V2.8255C6.70258 3.3286 7.11379 3.73792 7.61937 3.73792H9.66881V5.67447L7.23911 4.09927C7.05291 3.97874 6.78376 4.03541 6.66263 4.22044L6.40604 4.61234C6.3449 4.70574 6.3241 4.81693 6.34744 4.92548C6.37065 5.03327 6.43483 5.12578 6.5278 5.18586L6.57435 5.21604C6.11563 6.16561 5.54234 7.05114 4.85507 7.85265L4.8037 7.81935C4.61763 7.69881 4.34823 7.75548 4.22722 7.94026L3.96923 8.3343C3.84405 8.5259 3.89871 8.78313 4.09113 8.90783L6.5845 10.5241C6.77602 10.6487 7.03396 10.5972 7.16098 10.4032L7.41884 10.0094C7.54436 9.8179 7.49148 9.56188 7.29707 9.43579L7.24636 9.40291C7.44736 8.98704 7.67635 8.58719 7.92207 8.19804L8.81529 8.77711L8.6191 9.07632C8.56494 9.15887 8.58169 9.26868 8.65792 9.33153L9.66881 10.1647L9.66881 12.3144ZM6.92058 9.1917L5.17926 8.06282C5.86331 7.2589 6.44183 6.37722 6.90468 5.4302L8.64408 6.55789C7.96029 7.3618 7.38316 8.24433 6.92058 9.1917ZM7.09236 9.79778L6.83449 10.1916C6.82714 10.2029 6.81636 10.2041 6.81204 10.2041L4.3037 8.58295C4.29165 8.57513 4.2881 8.55771 4.29584 8.54585L4.5537 8.15205C4.55839 8.14486 4.56524 8.14196 4.57437 8.14196C4.57919 8.14196 4.58477 8.14271 4.59099 8.14423L7.08436 9.76067C7.09502 9.76748 7.09933 9.78705 7.09236 9.79778ZM6.74025 4.86086C6.72973 4.85404 6.72567 4.83448 6.73252 4.824L6.98911 4.43197C6.9938 4.42478 7.00078 4.42188 7.00978 4.42188C7.01473 4.42188 7.02031 4.42276 7.02652 4.42415L9.52002 6.04072C9.53068 6.04766 9.53461 6.06722 9.52776 6.07783L9.27117 6.4696C9.26419 6.48045 9.25557 6.48273 9.24961 6.48273L6.74025 4.86086ZM8.97359 6.77151L9.0213 6.80243C9.08992 6.84686 9.16881 6.87046 9.24961 6.87046C9.39002 6.87046 9.52015 6.79978 9.59765 6.68126L9.66881 6.57259V8.23272L9.4495 8.12378C9.36084 8.07922 9.25341 8.10876 9.19938 8.1913L9.02816 8.45244L8.13214 7.87154C8.39068 7.48969 8.6719 7.12306 8.97359 6.77151ZM12.7154 11.1027C12.477 11.4657 11.9676 11.5538 11.6186 11.2682L9.04033 9.14322L9.43086 8.54786L12.4237 10.0347C12.8221 10.2323 12.9581 10.7314 12.7154 11.1027Z" fill="#777777"/>
</g>
<defs>
<clipPath id="clip0_271_2226">
<rect width="14" height="14" fill="white"/>
</clipPath>
</defs>
</svg>
