<svg width="12" height="13" viewBox="0 0 12 13" fill="none" xmlns="http://www.w3.org/2000/svg">
<path d="M11.8284 11.9644L9.60199 9.71415C10.3764 8.7448 10.8002 7.53361 10.8022 6.28369C10.8022 5.19522 10.4855 4.13119 9.89198 3.22616C9.2985 2.32112 8.45496 1.61574 7.46804 1.1992C6.48111 0.782658 5.39513 0.673672 4.34741 0.886022C3.2997 1.09837 2.33731 1.62252 1.58195 2.39219C0.826593 3.16185 0.312187 4.14247 0.103783 5.21003C-0.10462 6.27758 0.00234019 7.38413 0.411138 8.38975C0.819936 9.39537 1.51221 10.2549 2.40042 10.8596C3.28863 11.4643 4.33288 11.7871 5.40112 11.7871C6.6278 11.785 7.81648 11.3532 8.76782 10.5641L10.9763 12.8205C11.0321 12.8778 11.0984 12.9233 11.1716 12.9544C11.2447 12.9854 11.3231 13.0014 11.4024 13.0014C11.4816 13.0014 11.56 12.9854 11.6332 12.9544C11.7063 12.9233 11.7727 12.8778 11.8284 12.8205C11.9384 12.7062 12 12.5525 12 12.3925C12 12.2324 11.9384 12.0787 11.8284 11.9644ZM1.20025 6.28369C1.20025 5.4371 1.44663 4.60952 1.90822 3.90561C2.36982 3.20169 3.02591 2.65306 3.79352 2.32908C4.56113 2.00511 5.40578 1.92034 6.22067 2.0855C7.03556 2.25066 7.78408 2.65834 8.37158 3.25697C8.95908 3.85559 9.35918 4.61829 9.52127 5.44862C9.68336 6.27894 9.60017 7.13959 9.28222 7.92174C8.96426 8.70388 8.42583 9.3724 7.735 9.84274C7.04417 10.3131 6.23197 10.5641 5.40112 10.5641C4.28698 10.5641 3.21847 10.1131 2.43066 9.31041C1.64284 8.50767 1.20025 7.41893 1.20025 6.28369ZM5.95323 3.59925C5.90712 3.48894 5.83019 3.39488 5.73203 3.32877C5.63386 3.26266 5.51879 3.22741 5.40112 3.22741C5.28345 3.22741 5.16838 3.26266 5.07021 3.32877C4.97205 3.39488 4.89512 3.48894 4.84901 3.59925L3.04863 7.87968C3.01425 7.95414 2.99498 8.03492 2.99197 8.11716C2.98896 8.19939 3.00227 8.28141 3.0311 8.35828C3.05994 8.43515 3.10371 8.5053 3.15978 8.56453C3.21586 8.62375 3.28309 8.67084 3.35745 8.70296C3.43181 8.73508 3.51177 8.75157 3.59254 8.75145C3.6733 8.75133 3.75321 8.73461 3.82748 8.70227C3.90175 8.66993 3.96885 8.62265 4.02476 8.56326C4.08067 8.50387 4.12424 8.4336 4.15286 8.35664L4.51294 7.50667H6.31331L6.67338 8.35664C6.71766 8.46343 6.79081 8.55519 6.88431 8.62123C6.97782 8.68728 7.08782 8.72487 7.20149 8.72965C7.28194 8.72949 7.36153 8.71285 7.43554 8.68073C7.58189 8.61738 7.69759 8.49744 7.75722 8.34725C7.81686 8.19706 7.81556 8.02889 7.75361 7.87968L5.95323 3.59925ZM5.02304 6.28369L5.40112 5.39091L5.7792 6.28369H5.02304Z" fill="#777777"/>
</svg>
